<?xml version="1.0" encoding="UTF-8" standalone="no"?>
<!-- Created with Inkscape (http://www.inkscape.org/) -->

<svg
   width="250"
   height="192"
   viewBox="0 0 66.145832 50.800001"
   version="1.1"
   id="svg2171"
   inkscape:version="1.1.2 (b8e25be833, 2022-02-05)"
   sodipodi:docname="logo data.svg"
   inkscape:export-filename="C:\Users\lucas\Downloads\logos galeria\logo data 2.png"
   inkscape:export-xdpi="96"
   inkscape:export-ydpi="96"
   xmlns:inkscape="http://www.inkscape.org/namespaces/inkscape"
   xmlns:sodipodi="http://sodipodi.sourceforge.net/DTD/sodipodi-0.dtd"
   xmlns="http://www.w3.org/2000/svg"
   xmlns:svg="http://www.w3.org/2000/svg">
  <sodipodi:namedview
     id="namedview2173"
     pagecolor="#ffffff"
     bordercolor="#666666"
     borderopacity="1.0"
     inkscape:pageshadow="2"
     inkscape:pageopacity="0.0"
     inkscape:pagecheckerboard="0"
     inkscape:document-units="px"
     showgrid="false"
     units="px"
     inkscape:zoom="1.8422839"
     inkscape:cx="20.626571"
     inkscape:cy="91.191157"
     inkscape:window-width="1366"
     inkscape:window-height="705"
     inkscape:window-x="-8"
     inkscape:window-y="-8"
     inkscape:window-maximized="1"
     inkscape:current-layer="layer1" />
  <defs
     id="defs2168" />
  <g
     inkscape:label="Camada 1"
     inkscape:groupmode="layer"
     id="layer1">
    <path
       style="fill:#c9b363;stroke-width:0.270945;fill-opacity:1"
       d="M 1.6986893,50.278883 C -0.0556217,49.157038 7.3297106e-5,49.871637 7.3297106e-5,28.484988 7.3297106e-5,7.1906933 -0.0432867,7.7677008 1.6377983,6.6928848 2.4038713,6.2030899 2.9694763,6.1327943 6.1516363,6.1318871 l 3.6380206,-0.00104 0.0063,1.5954014 c 0.0098,2.4713425 0.3808931,3.7052805 1.4135761,4.7000685 1.244703,1.199026 2.428338,1.40059 3.984806,0.678579 1.625388,-0.753982 2.254239,-2.133327 2.262412,-4.9624556 l 0.0058,-2.0115933 H 33.469844 49.47714 l 0.006,1.5954014 c 0.01,2.4713425 0.38089,3.7052805 1.41357,4.7000685 1.2447,1.199026 2.42834,1.40059 3.98481,0.678579 1.62538,-0.753982 2.25424,-2.133327 2.26241,-4.9624556 l 0.006,-2.0115933 3.24114,0.00103 c 2.78407,8.879e-4 3.36466,0.080004 4.11697,0.5609977 1.68108,1.0748161 1.63772,0.4978085 1.63772,21.7921032 0,21.386649 0.0557,20.67205 -1.69861,21.793896 -0.7849,0.501923 -1.94115,0.521127 -31.374305,0.521127 -29.4331557,0 -30.5894097,-0.0192 -31.3743027,-0.521127 z M 61.38341,30.963617 V 14.732144 H 33.072992 4.7625743 V 30.963617 47.195091 H 33.072992 61.38341 Z m -49.477086,9.017487 v -4.161917 h 6.614584 6.614583 v 4.161917 4.161916 h -6.614583 -6.614584 z m 14.552084,0 v -4.161917 h 6.614584 6.614578 v 4.161917 4.161916 H 33.072992 26.458408 Z M 11.906324,30.269965 v -4.161917 h 6.614584 6.614583 v 4.161917 4.161916 h -6.614583 -6.614584 z m 14.552084,0 v -4.161917 h 6.614584 6.614578 v 4.161917 4.161916 h -6.614578 -6.614584 z m 14.552082,0 v -4.161917 h 6.61459 6.61458 v 4.161917 4.161916 H 47.62508 41.01049 Z M 26.458408,20.558827 v -4.161916 h 6.614584 6.614578 v 4.161916 4.161917 h -6.614578 -6.614584 z m 14.552082,0 v -4.161916 h 6.61459 6.61458 v 4.161916 4.161917 H 47.62508 41.01049 Z M 12.964658,12.039044 c -0.218282,-0.08367 -0.664766,-0.407729 -0.992188,-0.720114 -0.572435,-0.546146 -0.595312,-0.74786 -0.595312,-5.2490575 0,-4.6000925 0.01124,-4.6928683 0.649431,-5.36212576 0.912691,-0.95711293 2.464514,-0.9412611 3.339344,0.034111 0.606284,0.67596316 0.646241,0.93063606 0.729166,4.64747306 0.105458,4.7267442 -0.120303,5.7687622 -1.386342,6.3987792 -0.947586,0.471545 -1.108297,0.494667 -1.744099,0.250934 z m 39.687502,0 c -0.21828,-0.08367 -0.66477,-0.407729 -0.99219,-0.720114 -0.57244,-0.546146 -0.59531,-0.74786 -0.59531,-5.2490575 0,-4.6000925 0.0112,-4.6928683 0.64943,-5.36212576 0.91269,-0.95711293 2.46451,-0.9412611 3.33935,0.034111 0.60628,0.67596316 0.64623,0.93063606 0.72916,4.64747306 0.10689,4.7907032 -0.13451,5.8881962 -1.41892,6.4509752 -0.96017,0.420713 -1.09242,0.436069 -1.71152,0.198738 z"
       id="path2205"
       inkscape:export-filename="C:\Users\lucas\Downloads\100anos-semana-arte-moderna-main\images\logos galeria\logo data.png"
       inkscape:export-xdpi="96"
       inkscape:export-ydpi="96" />
  </g>
</svg>
