<?xml version="1.0" encoding="UTF-8" standalone="no"?>
<!-- Created with Inkscape (http://www.inkscape.org/) -->

<svg
   width="250"
   height="192"
   viewBox="0 0 66.145832 50.800001"
   version="1.1"
   id="svg3153"
   inkscape:version="1.1.2 (b8e25be833, 2022-02-05)"
   sodipodi:docname="logo tema.svg"
   xmlns:inkscape="http://www.inkscape.org/namespaces/inkscape"
   xmlns:sodipodi="http://sodipodi.sourceforge.net/DTD/sodipodi-0.dtd"
   xmlns="http://www.w3.org/2000/svg"
   xmlns:svg="http://www.w3.org/2000/svg">
  <sodipodi:namedview
     id="namedview3155"
     pagecolor="#ffffff"
     bordercolor="#666666"
     borderopacity="1.0"
     inkscape:pageshadow="2"
     inkscape:pageopacity="0.0"
     inkscape:pagecheckerboard="0"
     inkscape:document-units="px"
     showgrid="false"
     units="px"
     inkscape:zoom="1.8422839"
     inkscape:cx="-5.9708496"
     inkscape:cy="94.447984"
     inkscape:window-width="1366"
     inkscape:window-height="705"
     inkscape:window-x="-8"
     inkscape:window-y="-8"
     inkscape:window-maximized="1"
     inkscape:current-layer="layer1" />
  <defs
     id="defs3150" />
  <g
     inkscape:label="Camada 1"
     inkscape:groupmode="layer"
     id="layer1">
    <path
       style="fill:#c9b363;stroke-width:0.264583;fill-opacity:1"
       d="M 61.131033,44.777619 58.587197,42.3128 42.607088,42.442747 c -15.121145,0.12296 -16.001273,0.104492 -16.373872,-0.343564 -0.289474,-0.348096 -0.416998,-1.338942 -0.481489,-3.741084 l -0.08772,-3.267575 -4.013318,-7.93e-4 c -2.207324,-5.3e-4 -6.223894,-0.07801 -8.925711,-0.172435 l -4.9123943,-0.17169 -2.660577,2.553686 c -2.880891,2.765195 -3.551936,3.05289 -4.62283704,1.981989 l -0.571748,-0.571744 0.18158,-16.754315 c 0.09987,-9.214873 0.252099,-16.9380829 0.338289,-17.162689 0.08619,-0.2246061 0.354703,-0.5143386 0.59669604,-0.6438495 0.241994,-0.1295112 8.901855,-0.3224914 19.2441363,-0.4288449 l 18.804148,-0.1933702 0.568487,0.5684867 c 0.517578,0.5175771 0.568486,0.8490368 0.568486,3.7012816 v 3.1327943 l 5.995885,0.174497 c 3.297735,0.09597 8.834141,0.174497 12.303125,0.174497 5.765216,0 6.348961,0.04172 6.792709,0.485468 0.446172,0.446172 0.499713,1.263502 0.661458,10.097434 0.0968,5.286581 0.175991,12.926245 0.175991,16.977031 0,7.012289 -0.02535,7.390413 -0.529167,7.894233 -1.029248,1.029247 -1.785731,0.702717 -4.528212,-1.954572 z m 1.157322,-29.818807 c -0.110543,-0.102973 -7.523329,-0.229135 -16.472861,-0.28036 l -16.271875,-0.09314 -0.0688,12.245712 -0.06879,12.245711 15.282337,-0.178146 15.282336,-0.178147 1.190625,1.065274 1.190625,1.06527 0.06869,-12.852476 C 62.458422,20.929646 62.398892,15.06178 62.28835,14.958808 Z M 32.971177,35.234841 c -0.409374,-0.409371 -0.649433,-0.951727 -0.649433,-1.467233 0,-0.515506 0.240059,-1.057863 0.649433,-1.467234 0.409371,-0.409374 0.951727,-0.649433 1.467233,-0.649433 0.515507,0 1.057863,0.240059 1.467234,0.649433 0.409374,0.409371 0.649433,0.951728 0.649433,1.467234 0,0.515506 -0.240059,1.057862 -0.649433,1.467233 -0.409371,0.409374 -0.951727,0.649433 -1.467234,0.649433 -0.515506,0 -1.057862,-0.240059 -1.467233,-0.649433 z m 6.085417,0 c -0.409374,-0.409371 -0.649433,-0.951727 -0.649433,-1.467233 0,-0.515506 0.240059,-1.057863 0.649433,-1.467234 0.641654,-0.641657 0.706741,-0.649433 5.435984,-0.649433 4.729242,0 4.794329,0.0078 5.435983,0.649433 0.409374,0.409371 0.649433,0.951728 0.649433,1.467234 0,0.515506 -0.240059,1.057862 -0.649433,1.467233 -0.641654,0.641657 -0.706741,0.649433 -5.435983,0.649433 -4.729243,0 -4.79433,-0.0078 -5.435984,-0.649433 z m -6.085417,-7.408333 c -0.409374,-0.409371 -0.649433,-0.951726 -0.649433,-1.467233 0,-0.515507 0.240059,-1.057862 0.649433,-1.467235 0.409371,-0.409374 0.951727,-0.649432 1.467233,-0.649432 0.515507,0 1.057863,0.240058 1.467234,0.649432 0.409374,0.409373 0.649433,0.951728 0.649433,1.467235 0,0.515507 -0.240059,1.057862 -0.649433,1.467233 -0.409371,0.409374 -0.951727,0.649433 -1.467234,0.649433 -0.515506,0 -1.057862,-0.240059 -1.467233,-0.649433 z m 6.085417,0 c -0.409374,-0.409371 -0.649433,-0.951726 -0.649433,-1.467233 0,-0.515507 0.240059,-1.057862 0.649433,-1.467235 l 0.64943,-0.649432 h 7.043838 7.043839 l 0.773395,0.773397 c 0.841632,0.841631 0.928127,1.243361 0.47964,2.227687 -0.51816,1.137235 -1.170631,1.232249 -8.461968,1.232249 h -6.878744 z m -6.085417,-7.408332 c -0.409374,-0.409373 -0.649433,-0.951728 -0.649433,-1.467235 0,-0.515507 0.240059,-1.057861 0.649433,-1.467235 0.409371,-0.409373 0.951727,-0.649431 1.467233,-0.649431 0.515507,0 1.057863,0.240058 1.467234,0.649431 0.409374,0.409374 0.649433,0.951728 0.649433,1.467235 0,0.515507 -0.240059,1.057862 -0.649433,1.467235 -0.409371,0.409373 -0.951727,0.649432 -1.467234,0.649432 -0.515506,0 -1.057862,-0.240059 -1.467233,-0.649432 z m 6.085417,0 c -0.409374,-0.409373 -0.649433,-0.951728 -0.649433,-1.467235 0,-0.515507 0.240059,-1.057861 0.649433,-1.467235 l 0.64943,-0.649431 h 8.466244 c 5.728732,0 8.678368,0.09665 9.12227,0.298905 0.779251,0.355051 1.340051,1.554883 1.092015,2.336374 -0.09734,0.306692 -0.428258,0.791719 -0.73537,1.077838 -0.531693,0.495348 -0.973963,0.520216 -9.251773,0.520216 H 39.706024 Z M 16.087119,31.386358 h 9.884624 v -9.657292 c 0,-9.304514 0.01933,-9.676621 0.529167,-10.186458 0.49112,-0.491118 0.881944,-0.529166 5.43555,-0.529166 h 4.906383 L 36.765103,9.0952128 36.687363,7.1769833 20.415487,7.2739013 C 11.465962,7.3272063 4.0543206,7.4235295 3.9451796,7.4879537 3.8360396,7.5523777 3.7467426,13.442242 3.7467426,20.576542 v 12.971454 l 1.227876,-1.080818 1.227875,-1.08082 z"
       id="path3187"
       inkscape:export-filename="C:\Users\lucas\Downloads\logos galeria\logo tema.png"
       inkscape:export-xdpi="96"
       inkscape:export-ydpi="96" />
  </g>
</svg>
