<?xml version="1.0" encoding="UTF-8" standalone="no"?>
<!-- Created with Inkscape (http://www.inkscape.org/) -->

<svg
   width="100"
   height="40"
   viewBox="0 0 26.458333 10.583334"
   version="1.1"
   id="svg5"
   inkscape:version="1.1 (c68e22c387, 2021-05-23)"
   sodipodi:docname="desenho.svg"
   xmlns:inkscape="http://www.inkscape.org/namespaces/inkscape"
   xmlns:sodipodi="http://sodipodi.sourceforge.net/DTD/sodipodi-0.dtd"
   xmlns="http://www.w3.org/2000/svg"
   xmlns:svg="http://www.w3.org/2000/svg">
  <sodipodi:namedview
     id="namedview7"
     pagecolor="#ffffff"
     bordercolor="#666666"
     borderopacity="1.0"
     inkscape:pageshadow="2"
     inkscape:pageopacity="0.0"
     inkscape:pagecheckerboard="0"
     inkscape:document-units="px"
     showgrid="false"
     units="px"
     inkscape:zoom="4.8177329"
     inkscape:cx="70.572613"
     inkscape:cy="29.266878"
     inkscape:window-width="1280"
     inkscape:window-height="971"
     inkscape:window-x="-8"
     inkscape:window-y="-8"
     inkscape:window-maximized="1"
     inkscape:current-layer="layer1" />
  <defs
     id="defs2" />
  <g
     inkscape:label="Camada 1"
     inkscape:groupmode="layer"
     id="layer1"
     style="display:inline">
    <path
       style="fill:#ffffff;fill-rule:evenodd;stroke:#ffffff;stroke-width:0.18681;stroke-linecap:round;stroke-linejoin:round;paint-order:markers stroke fill"
       d=""
       id="path622"
       transform="scale(0.26458334)" />
    <path
       style="fill:#000000;fill-opacity:0;stroke-width:0.0666981"
       d="M 6.5815695,10.531896 C 5.5395445,10.333561 4.6985565,9.9094928 3.9453565,9.2025848 3.3775805,8.6697053 2.9166475,8.0030406 2.6673341,7.3541314 2.4119188,6.6893407 2.2400167,5.6537878 2.2963453,5.1192624 2.5641493,2.5779617 4.1435785,0.81459519 6.5850715,0.33108009 c 0.691456,-0.1369366 0.791954,-0.1414575 1.359056,-0.061137 1.482092,0.2099141 2.6175955,0.81695751 3.4797395,1.86028161 1.55534,1.8821943 1.556842,4.695543 0.0035,6.5752077 -1.191648,1.4419956 -3.0955385,2.1596026 -4.8458075,1.8264626 z m 2.108092,-0.272379 C 10.460545,9.7836608 11.82073,8.4082578 12.286167,6.6227717 12.496442,5.8161296 12.425921,4.4305075 12.139929,3.7493984 11.947236,3.2904887 11.714971,2.8040076 11.651344,2.7260517 11.615778,2.682477 11.45005,2.4740048 11.283059,2.26278 10.664251,1.4800551 9.6005715,0.80618099 8.5999865,0.56296779 8.0025285,0.41774279 6.8910825,0.41900669 6.2968545,0.56558679 4.4214055,1.0282096 3.0362155,2.4316956 2.5994625,4.3118145 1.9637907,7.04823 3.7530335,9.8067507 6.5026595,10.329473 c 0.623394,0.118511 1.602136,0.0872 2.187002,-0.06996 z M 7.0616565,9.8359818 c -0.09051,-0.169754 -0.304654,-0.181847 -0.397161,-0.02243 -0.03788,0.06528 -0.06875,0.07995 -0.06988,0.03321 -0.0011,-0.04605 0.08614,-0.225897 0.193887,-0.399662 0.20862,-0.3364315 0.207633,-0.3369367 0.337767,0.172725 0.08235,0.3225 0.04992,0.4309622 -0.06461,0.216152 z m -0.069625,-0.343781 c 0,-0.07567 -0.02996,-0.119004 -0.06657,-0.09629 -0.03662,0.02271 -0.06657,0.08463 -0.06657,0.137589 0,0.05296 0.02996,0.09629 0.06657,0.09629 0.03662,0 0.06657,-0.06192 0.06657,-0.137589 z m 0.399442,0.104178 c 0,-0.202138 0.02996,-0.367524 0.06657,-0.367524 0.03662,0 0.06657,0.148145 0.06657,0.329213 0,0.257346 0.02543,0.335884 0.116504,0.359773 0.07168,0.0188 0.04606,0.03354 -0.06657,0.03831 -0.178466,0.0076 -0.183077,-0.0015 -0.183078,-0.359773 z m 1.041163,-0.0437 c -0.06095,-0.189422 -0.09819,-0.357074 -0.08277,-0.3725598 0.01543,-0.015486 0.04834,0.036003 0.07313,0.1144208 0.03106,0.09823 0.0899,0.136147 0.189156,0.121907 0.111609,-0.01601 0.141249,-0.06206 0.13154,-0.204363 -0.01626,-0.2382483 0.08389,-0.2381982 0.135756,6.7e-5 0.022,0.101069 0.05945,0.258937 0.08321,0.350818 0.04038,0.156128 0.03693,0.158931 -0.05273,0.04285 -0.144071,-0.186523 -0.358147,-0.116155 -0.334268,0.109875 0.02904,0.274908 -0.02018,0.218804 -0.14304,-0.163017 z m -2.087928,0.110526 c 0.01207,-0.162699 -0.01343,-0.204502 -0.13533,-0.221875 -0.106409,-0.01517 -0.168264,0.0238 -0.212145,0.133645 -0.100877,0.252517 -0.07838,-0.05673 0.02761,-0.379529 l 0.08776,-0.2672902 0.007,0.2171735 c 0.006,0.1852347 0.03146,0.2171737 0.173415,0.2171737 0.122052,0 0.166434,-0.03564 0.166434,-0.133645 0,-0.073505 0.03053,-0.1336456 0.06784,-0.1336456 0.07719,0 0.02701,0.2627786 -0.108467,0.5679926 l -0.08898,0.200468 z m -1.106562,-0.222435 c -0.0606,-0.06721 -0.110179,-0.187492 -0.110179,-0.267291 0,-0.1685895 0.219051,-0.4123798 0.370532,-0.4123798 0.174559,0 0.361896,0.1317127 0.359755,0.2529357 -0.0019,0.1067705 -0.0067,0.1066102 -0.06988,-0.00235 -0.03897,-0.067149 -0.146934,-0.1169382 -0.253584,-0.1169382 -0.387179,0 -0.37852,0.5459665 0.0099,0.6211445 0.134649,0.02606 0.132351,0.02977 -0.02355,0.03798 -0.09502,0.005 -0.22234,-0.04589 -0.282938,-0.113101 z m 3.918365,-0.143762 c -0.201093,-0.3197429 -0.205804,-0.3768609 -0.0385,-0.4667354 0.186448,-0.1001571 0.258493,-0.080967 0.11253,0.029975 -0.171683,0.130492 -0.09384,0.3251681 0.107883,0.2697924 0.126745,-0.034793 0.13241,-0.030033 0.03638,0.030571 -0.175454,0.1107287 -0.0726,0.2872487 0.139406,0.2392487 0.166211,-0.03763 0.168231,-0.03484 0.04483,0.06185 -0.184644,0.144681 -0.216023,0.131841 -0.402527,-0.164704 z m 0.475702,-0.3521466 c -0.15673,-0.2627031 -0.161017,-0.2904479 -0.05717,-0.3700463 0.187366,-0.1436213 0.376628,-0.073119 0.401888,0.1497067 0.0123,0.1085166 0.072222,0.23649 0.1331485,0.2843858 0.09373,0.073682 0.08118,0.076452 -0.08153,0.018002 -0.2257755,-0.081103 -0.2931655,-0.042596 -0.1751805,0.100099 0.04849,0.058641 0.05538,0.1018494 0.01625,0.1018494 -0.03738,0 -0.144211,-0.1277987 -0.2374,-0.2839966 z m 0.276573,-0.2014375 c 0.0256,-0.1334307 -0.164262,-0.2325788 -0.260464,-0.1360168 -0.09317,0.093513 0.0045,0.2975499 0.130773,0.2731449 0.05905,-0.011415 0.117411,-0.073122 0.129691,-0.1371281 z M 4.6354295,9.0617611 C 4.4984605,8.9576975 4.4892255,8.9812458 4.8379055,8.5454099 l 0.145825,-0.1822748 0.155336,0.1299346 c 0.08544,0.071464 0.119656,0.130935 0.07605,0.1321578 -0.04361,0.00122 -0.0987,-0.029307 -0.122431,-0.067844 -0.0294,-0.047752 -0.07359,-0.0447 -0.138756,0.00958 -0.08254,0.068755 -0.08031,0.096618 0.01624,0.2037128 0.121677,0.1349543 0.03525,0.174796 -0.09518,0.043877 -0.133063,-0.1335611 -0.266686,0.045435 -0.160874,0.2155003 0.09682,0.1556122 0.08871,0.1588812 -0.07868,0.031707 z M 6.3110965,8.7419513 C 5.7482145,8.5445198 5.2016075,8.1696228 4.8370035,7.7309262 4.2053685,6.9709343 4.0402995,6.5090509 4.0349895,5.4867869 c -0.0047,-0.908342 0.09904,-1.3187397 0.482296,-1.9075711 1.023849,-1.5730483 2.930495,-2.0815941 4.611319,-1.229944 0.752255,0.3811571 1.5064735,1.3310804 1.7218095,2.1685869 0.101683,0.3954741 0.08437,1.549675 -0.02886,1.9242639 C 10.540437,7.3720906 9.8307465,8.1877638 8.9285575,8.6178136 8.4472815,8.847225 8.3906995,8.8582534 7.5925125,8.878216 6.8562875,8.89663 6.7067575,8.880726 6.3110995,8.7419513 Z m 0.948092,-1.3209151 c 0.04439,-0.1857455 0.06533,-0.3531583 0.04654,-0.372027 -0.0188,-0.018869 -0.05477,0.087999 -0.07993,0.2374863 -0.0446,0.2649925 -0.167192,0.3826177 -0.167192,0.1604218 0,-0.061254 -0.01644,-0.094872 -0.03653,-0.074708 -0.05085,0.051041 0.03914,0.3865469 0.103677,0.3865469 0.02899,0 0.08904,-0.1519741 0.133433,-0.33772 z m 0.421104,-0.2170753 c -0.02197,-0.1358919 -0.068,-0.247076 -0.102294,-0.247076 -0.03429,0 -0.04297,0.067658 -0.01929,0.1503509 0.02368,0.082693 0.05839,0.2052397 0.07714,0.2723263 0.05714,0.2044833 0.08689,0.08693 0.04445,-0.1756012 z m -0.709357,-0.059137 c -0.02125,-0.053306 -0.03703,-0.037473 -0.04022,0.040372 -0.0029,0.070442 0.01284,0.1099092 0.03497,0.087705 0.02212,-0.022205 0.02449,-0.07984 0.0053,-0.128077 z m 0.254104,-0.2879281 c 0.767513,-0.127395 1.095632,-0.2305311 1.691261,-0.5316067 0.539573,-0.272741 1.06755,-0.7556498 1.079214,-0.9870946 0.028168,-0.5589345 -0.209641,-0.7609643 -0.980827,-0.8332479 -0.432005,-0.040492 -0.436568,-0.039182 -0.414208,0.1189471 0.01395,0.098683 0.07358,0.1675425 0.155755,0.1798803 0.39153,0.058782 0.441343,0.086546 0.420408,0.234322 -0.02983,0.2105261 -0.532101,0.5249903 -1.192897,0.7468471 -0.570316,0.191479 -1.707469,0.305398 -2.089022,0.2092764 -0.262975,-0.066249 -0.212066,-0.278254 0.123897,-0.5159477 0.213217,-0.1508512 0.282639,-0.2401994 0.25853,-0.3327361 -0.01813,-0.069579 -0.05671,-0.1265072 -0.08573,-0.1265072 -0.02902,0 -0.242216,0.1277982 -0.47376,0.2839961 -0.969303,0.6538854 -0.950584,1.3047241 0.04447,1.5462051 0.519753,0.1261343 0.742155,0.1272997 1.462907,0.00767 z m -0.03227,-1.0192901 c 8.78e-4,-0.1008055 0.01067,-0.1031104 0.07094,-0.016706 0.05687,0.081526 0.06348,0.07529 0.03543,-0.033411 C 7.2801685,5.7139839 7.2441165,5.5636329 7.2190215,5.4533756 7.1939255,5.3431182 7.1528015,5.2228375 7.1276345,5.186085 7.1024675,5.1493326 6.9942555,4.7360054 6.8871635,4.2675801 6.7800705,3.7991549 6.6699815,3.41576 6.6425195,3.4155915 c -0.08183,-5.011e-4 -0.05758,0.1815353 0.0781,0.5864997 0.153521,0.4581839 0.351047,1.2933873 0.314551,1.3300199 -0.01433,0.014382 -0.06101,-0.1178353 -0.103745,-0.2938173 -0.135944,-0.5598665 -0.370598,-1.2879306 -0.415258,-1.2884214 -0.0436,-4.792e-4 0.137368,0.782402 0.308813,1.3359787 0.05122,0.165386 0.125893,0.4285001 0.16594,0.584698 0.07265,0.2833589 0.199915,0.3886895 0.201847,0.1670566 z m -0.60947,-0.2004679 c -0.09695,-0.3729863 -0.128964,-0.4174226 -0.08463,-0.1174485 0.03813,0.2580045 0.07573,0.3680334 0.125766,0.3680334 0.01319,0 -0.0053,-0.1127632 -0.04114,-0.2505849 z m 1.838749,-0.6011695 c 0.06161,-0.2849603 0.16949,-0.7092157 0.239742,-0.9427898 0.135619,-0.4509055 0.160934,-0.6778933 0.0756,-0.6778933 -0.02867,0 -0.09212,0.2170262 -0.140989,0.4822804 -0.04887,0.2652541 -0.160229,0.721606 -0.247455,1.0141153 -0.169609,0.5687811 -0.194318,0.7388011 -0.09875,0.6795178 0.03291,-0.020417 0.110244,-0.2702702 0.171851,-0.5552304 z M 6.3330205,4.6546518 C 6.2597915,4.4455245 6.1799825,4.1412553 6.1556665,3.9784981 6.1313505,3.8157408 6.0848985,3.6825758 6.0524405,3.6825758 c -0.07768,0 -0.07598,0.018309 0.04085,0.4407683 0.251128,0.9080977 0.323971,1.1219989 0.347545,1.0205514 0.01393,-0.059957 -0.03458,-0.2801163 -0.107811,-0.4892437 z M 10.170082,8.588451 C 9.8754495,8.3081555 9.8973705,8.1953889 10.220172,8.3307682 c 0.346478,0.1453092 0.381753,0.1202327 0.23554,-0.1674394 -0.186717,-0.3673648 -0.0542,-0.4161814 0.269234,-0.099178 0.142485,0.1396526 0.244322,0.2687112 0.226304,0.2867961 -0.01802,0.018085 -0.122321,-0.053245 -0.231785,-0.1585107 -0.218732,-0.2103422 -0.278213,-0.1091347 -0.09238,0.1571769 0.139289,0.1996066 0.07959,0.2493019 -0.173225,0.1441926 -0.279012,-0.1160028 -0.32093,-0.041518 -0.0909,0.1615183 0.104917,0.092604 0.160801,0.1690606 0.124185,0.1699032 -0.03662,8.42e-4 -0.179297,-0.105706 -0.31707,-0.236776 z M 4.3333035,8.610745 c -0.0046,-0.1982127 -0.0641,-0.2305702 -0.190626,-0.1035751 -0.160881,0.1614822 -0.074,-0.02856 0.12894,-0.2820323 0.169053,-0.2111508 0.231595,-0.2486009 0.32836,-0.1966203 0.247224,0.1328054 0.199793,0.5994926 -0.05111,0.5028531 -0.0538,-0.020722 -0.116484,0.02639 -0.151548,0.1138985 -0.05717,0.1426696 -0.05998,0.1411501 -0.06402,-0.034524 z m 0.328648,-0.3062701 c 0,-0.1863897 -0.0761,-0.2236701 -0.209392,-0.1025861 -0.139724,0.1269209 -0.104757,0.225094 0.08017,0.225094 0.08092,0 0.129219,-0.04579 0.129218,-0.1225079 z m -0.783453,-0.073999 c 0.01416,-0.1823563 -0.01363,-0.2460858 -0.134352,-0.3080731 -0.141234,-0.072521 -0.126834,-0.08321 0.199721,-0.1482547 0.193561,-0.038555 0.364457,-0.057745 0.379768,-0.042645 0.03842,0.037883 -0.103401,0.2881486 -0.299436,0.5284227 l -0.163558,0.2004683 z m 0.274939,-0.3046631 c 0.02289,-0.059882 5.39e-4,-0.100234 -0.05552,-0.100234 -0.109495,0 -0.183705,0.095883 -0.122082,0.1577362 0.07015,0.070418 0.136969,0.048785 0.177604,-0.057502 z m 6.6496945,-0.071389 c -0.240707,-0.144806 -0.273107,-0.1892564 -0.216006,-0.2963483 0.03695,-0.069294 0.09996,-0.1463282 0.140034,-0.1711863 0.05223,-0.0324 0.05301,-0.00797 0.0028,0.086275 -0.101394,0.1901659 0.03916,0.3223464 0.193591,0.1820623 0.102495,-0.093104 0.109235,-0.087376 0.07969,0.067735 -0.03569,0.1873954 0.08996,0.2312691 0.246031,0.085911 0.07338,-0.068341 0.08185,-0.061272 0.0466,0.038877 -0.0237,0.067323 -0.04308,0.1349804 -0.04308,0.1503509 0,0.072509 -0.19252,0.010989 -0.449617,-0.1436767 z M 3.7132765,7.5982325 c 0.119001,-0.055174 0.216365,-0.1318371 0.216365,-0.1703637 0,-0.038527 0.05992,-0.070048 0.133147,-0.070048 0.07323,0 0.133147,0.030815 0.133147,0.068477 0,0.072883 -0.222732,0.1737575 -0.518882,0.2349985 -0.160787,0.03325 -0.156895,0.026474 0.03622,-0.063064 z M 11.25275,7.4914659 c 0,-0.036752 0.04494,-0.066823 0.09986,-0.066823 0.110415,0 0.136723,-0.1697135 0.03599,-0.2321993 -0.03513,-0.02179 -0.121032,-0.00378 -0.190903,0.040013 -0.164497,0.1031153 -0.344395,0.032134 -0.344395,-0.1358865 0,-0.1441972 0.115136,-0.248976 0.187507,-0.1706403 0.02503,0.027088 0.0081,0.062675 -0.03772,0.079083 -0.09925,0.03558 -0.112439,0.2191622 -0.01574,0.2191622 0.03711,0 0.123018,-0.034816 0.190902,-0.077369 0.253237,-0.1587398 0.543623,0.1462059 0.30559,0.320911 -0.146221,0.1073192 -0.2311,0.1160416 -0.2311,0.023748 z M 3.3970515,7.3626707 c 0,-0.034085 0.07947,-0.1247165 0.176598,-0.2014035 0.212243,-0.1675751 0.159636,-0.2578197 -0.08506,-0.1459125 -0.09642,0.044098 -0.190581,0.064859 -0.209236,0.046136 -0.01865,-0.018724 0.04513,-0.064955 0.141751,-0.1027357 0.09662,-0.037781 0.250563,-0.098018 0.342101,-0.1338611 0.131863,-0.051632 0.166435,-0.0446 0.166435,0.033853 0,0.054462 -0.0749,0.1643861 -0.166435,0.2442759 -0.205467,0.1793192 -0.208982,0.2372772 -0.01664,0.274462 0.09273,0.017926 0.05468,0.032426 -0.09986,0.038059 -0.137308,0.005 -0.249651,-0.018788 -0.249651,-0.052873 z M 2.8029961,6.1824844 C 2.6306966,6.0369619 2.5981671,5.9621934 2.5981671,5.7116886 c 0,-0.3939921 0.2153552,-0.6258375 0.5813244,-0.6258375 0.320328,0 0.519523,0.1378775 0.613906,0.4249291 0.09111,0.2770969 0.01493,0.5058039 -0.233918,0.7022803 -0.241287,0.190506 -0.507459,0.1797477 -0.7564834,-0.030576 z M 3.5468425,6.0081585 C 3.7050965,5.8244515 3.6933535,5.5608721 3.5185945,5.3741541 3.1404205,4.9701013 2.5372301,5.4656801 2.8022403,5.9627076 2.9496815,6.239235 3.3278935,6.2623212 3.5468425,6.0081585 Z m 7.7262625,0.1860518 c -0.155103,-0.1339127 -0.18679,-0.2142452 -0.18679,-0.4735442 0,-0.2624613 0.03112,-0.3391435 0.195106,-0.4807234 0.161668,-0.1395814 0.241515,-0.1622018 0.465911,-0.1319914 0.536316,0.072204 0.747654,0.6251328 0.398245,1.041935 -0.223748,0.2669033 -0.592947,0.2856597 -0.872472,0.044324 z M 12.021373,6.0578167 C 12.280628,5.797592 12.216242,5.4807883 11.866042,5.2935321 11.561101,5.1304768 11.25275,5.3625251 11.25275,5.7550614 c 0,0.4451662 0.450108,0.6224609 0.768623,0.3027553 z M 3.5301985,4.8334113 c 0,-0.028585 0.06194,-0.1052002 0.137633,-0.1702571 0.152917,-0.131421 0.14481,-0.2335328 -0.02707,-0.3409894 -0.09423,-0.05891 -0.153312,-0.025368 -0.333429,0.1892859 -0.185542,0.2211195 -0.245967,0.2540654 -0.396448,0.2161558 -0.2786491,-0.070198 -0.3356193,-0.5213607 -0.07835,-0.6204544 0.158558,-0.061072 0.20474,0.032746 0.06618,0.1344434 -0.1517262,0.1113596 -0.091233,0.3096745 0.09446,0.3096745 0.07309,0 0.168391,-0.067658 0.211777,-0.1503509 0.09924,-0.1891443 0.186991,-0.2482676 0.370419,-0.2495616 0.318746,-0.00225 0.471232,0.4065969 0.232521,0.623435 -0.127464,0.1157854 -0.277696,0.1474976 -0.277696,0.058619 z m 7.5228295,-0.00533 c 0,-0.057471 0.623497,-0.1431642 1.041659,-0.1431642 0.281294,0 0.291188,0.1032997 0.0152,0.1587037 -0.30746,0.061722 -1.056858,0.050703 -1.056858,-0.015539 z m -0.08761,-0.2569235 c -0.02397,-0.038934 0.04585,-0.183751 0.155162,-0.3218164 0.109311,-0.138065 0.198748,-0.2622832 0.198748,-0.2760401 0,-0.013757 -0.119832,-0.00578 -0.266295,0.017729 -0.16421,0.026356 -0.266294,0.016657 -0.266294,-0.025301 0,-0.081531 1.04016,-0.3739091 1.162532,-0.3267751 0.119808,0.046146 0.189673,0.4812863 0.103288,0.6433019 -0.110801,0.2078067 -0.385292,0.2470187 -0.552726,0.078959 l -0.14025,-0.1407747 -0.175289,0.2107534 c -0.104146,0.1252163 -0.19298,0.1820229 -0.218876,0.139964 z m 0.91886,-0.3292042 c 0.05964,-0.059868 0.09174,-0.1525375 0.07133,-0.2059332 -0.02041,-0.053395 -0.03712,-0.1403016 -0.03712,-0.1931246 0,-0.070644 -0.04842,-0.084676 -0.183078,-0.053061 -0.316855,0.074387 -0.374373,0.1771087 -0.213861,0.3819306 0.163216,0.2082717 0.215146,0.2183203 0.362725,0.070189 z M 3.4094255,3.7161841 c -0.108659,-0.091773 -0.216319,-0.2418705 -0.239243,-0.3335505 -0.05727,-0.229018 0.103218,-0.5825866 0.316335,-0.6969295 0.262016,-0.140579 0.291309,-0.037184 0.05282,0.1864328 -0.366391,0.3435403 -0.218241,0.8104389 0.257157,0.8104389 0.310042,0 0.466016,-0.1771897 0.466016,-0.5294028 0,-0.1624229 0.02106,-0.2112353 0.06996,-0.1621501 0.180473,0.1811483 0.06009,0.6551695 -0.20077,0.7905714 -0.279879,0.1452722 -0.496002,0.1256998 -0.722278,-0.06541 z M 10.587013,3.5489305 C 10.422842,3.3841463 10.415994,3.1409014 10.570373,2.957779 c 0.398269,-0.4724321 1.066326,0.068366 0.711893,0.5762831 -0.135482,0.1941494 -0.508685,0.2021306 -0.695249,0.014868 z m 0.517776,-0.0372 C 11.267795,3.39713 11.30528,3.0938049 11.172859,2.9608917 10.971521,2.7588004 10.587011,2.9480347 10.587011,3.249213 c 0,0.1345051 0.210719,0.3665405 0.332868,0.3665405 0.02032,0 0.10353,-0.04681 0.184908,-0.104023 z M 10.103716,2.9976438 c -0.01561,-0.045941 0.02892,-0.2877382 0.09895,-0.537328 0.07003,-0.2495898 0.117748,-0.4805895 0.106045,-0.5133326 -0.0117,-0.032743 -0.169756,0.077696 -0.3512275,0.2454204 -0.210446,0.1945024 -0.340256,0.2739202 -0.358404,0.2192714 -0.03741,-0.112639 0.8028015,-0.8736574 0.8812735,-0.7982132 0.03514,0.033784 0.01221,0.2539115 -0.05564,0.5341138 -0.06348,0.2621549 -0.09927,0.4928509 -0.07954,0.5126578 0.01973,0.019807 0.164604,-0.087546 0.321937,-0.2385626 0.282148,-0.2708212 0.385919,-0.32992 0.385919,-0.2197849 0,0.058434 -0.828459,0.8792861 -0.887434,0.8792861 -0.01843,0 -0.04627,-0.037588 -0.06188,-0.083528 z M 4.5672035,2.9403858 c -0.246888,-0.7340983 -0.353816,-1.2065824 -0.279535,-1.235193 0.04578,-0.017632 0.320978,0.109535 0.611557,0.2825939 0.631096,0.3758602 0.593823,0.3482785 0.541554,0.4007426 -0.02324,0.023323 -0.13033,0.00578 -0.237986,-0.038975 -0.16537,-0.068755 -0.223162,-0.063345 -0.372494,0.034867 -0.141165,0.092841 -0.172956,0.1605141 -0.157885,0.3360927 0.0198,0.2306243 -0.05149,0.3796011 -0.105211,0.2198718 z m 0.12259,-0.6348228 c 0.146289,-0.056346 0.131465,-0.1781843 -0.03432,-0.2821086 -0.174753,-0.1095432 -0.211583,-0.074661 -0.155975,0.1477276 0.0486,0.194348 0.04366,0.1908621 0.190299,0.134381 z M 5.3359365,1.738255 5.0716645,1.1767275 5.2828935,1.0625887 c 0.304034,-0.16428601 0.489181,-0.14817331 0.621196,0.054061 0.09304,0.1425219 0.09999,0.2096179 0.03861,0.3728171 -0.06944,0.184664 -0.06074,0.2070679 0.120668,0.3106632 0.19634,0.1121225 0.256193,0.2118809 0.127123,0.2118809 -0.03807,0 -0.186671,-0.06014 -0.330216,-0.1336453 -0.342001,-0.1751281 -0.355412,-0.1707659 -0.229052,0.074501 0.07413,0.1438892 0.08589,0.2295659 0.03811,0.2775313 -0.04779,0.047965 -0.15071,-0.1039638 -0.333398,-0.4921421 z m 0.328998,-0.1295315 c 0.151909,-0.081604 0.177354,-0.4323959 0.03533,-0.4870989 -0.140168,-0.053989 -0.372577,0.024967 -0.372577,0.1265749 0,0.099626 0.139417,0.4296977 0.181497,0.4296977 0.01484,0 0.08492,-0.031128 0.155749,-0.069174 z m 3.342341,0.5385123 c -0.158446,-0.096969 -0.203297,-0.1627963 -0.170564,-0.2503351 0.05793,-0.1549126 0.422801,-0.8381949 0.484634,-0.90754481 0.05182,-0.058125 0.529022,0.15501241 0.531718,0.23748801 0.0024,0.072461 -0.118936,0.061574 -0.280407,-0.025166 -0.114463,-0.061488 -0.156359,-0.053025 -0.228631,0.046183 -0.126424,0.1735413 -0.112884,0.2166407 0.110994,0.3532982 0.244289,0.1491166 0.187891,0.2421059 -0.06669,0.1099632 -0.164247,-0.085253 -0.194365,-0.082704 -0.291141,0.024632 -0.156955,0.1740818 -0.13382,0.2541271 0.09677,0.3348121 0.112593,0.039397 0.18572,0.1024788 0.162505,0.1401822 -0.05859,0.095154 -0.10318,0.087043 -0.349187,-0.063513 z M 8.2979705,1.8241319 c -0.0232,-0.037676 0.003,-0.2426599 0.05825,-0.4555207 0.122177,-0.47082331 0.125785,-0.60600521 0.01721,-0.64492581 -0.190088,-0.068142 0.03743,-0.1333694 0.266814,-0.076492 0.224506,0.055668 0.317533,0.1826617 0.149272,0.203773 -0.03661,0.00459 -0.09314,0.012112 -0.125609,0.016706 -0.03247,0.00459 -0.09475,0.19836351 -0.138411,0.43059891 -0.08734,0.4645999 -0.160763,0.634298 -0.227531,0.5258607 z"
       id="path1841" />
    <path
       style="fill:#f4e3d7;fill-rule:evenodd;stroke:#ffffff;stroke-width:0.132095;stroke-linecap:round;stroke-linejoin:round;paint-order:markers stroke fill"
       d="M 26.308825,39.246888 C 23.631221,39.039405 20.85701,38.124697 18.383154,36.63365 16.168352,35.29874 13.74997,32.91952 12.333219,30.681685 10.887475,28.398055 9.9310517,25.813768 9.5334194,23.116541 9.3735389,22.032036 9.3213312,19.977874 9.4261737,18.896855 9.7976149,15.066963 11.243328,11.471705 13.587036,8.5494508 c 0.66812,-0.8330452 1.884685,-2.0433706 2.741314,-2.7272524 2.063102,-1.6470583 4.628663,-2.9301623 7.175315,-3.5885613 2.219606,-0.5738463 5.859653,-0.6648118 8.400514,-0.2099307 3.125548,0.5595556 7.013432,2.6830969 9.523059,5.201444 1.121528,1.1254236 2.578518,2.9907326 3.040667,3.8928046 0.5047,0.98513 1.32521,2.822264 1.556859,3.485828 0.517099,1.481245 0.758254,3.120359 0.811051,5.51267 0.0601,2.723386 -0.114453,4.086277 -0.78371,6.118986 -1.973741,5.99477 -6.628759,10.534997 -12.683431,12.370665 -1.032742,0.313109 -2.131336,0.507903 -3.460265,0.613549 -0.914046,0.07266 -2.826569,0.08713 -3.599584,0.02723 z m 0.778129,-2.141857 c -0.05773,-0.506175 -0.46495,-2.008385 -0.591252,-2.181112 -0.05075,-0.0694 -0.141346,-0.10735 -0.201332,-0.08433 -0.142972,0.05486 -0.578158,0.715435 -1.021549,1.550616 -0.481329,0.906643 -0.48941,1.191793 -0.01817,0.641259 0.504216,-0.589063 0.985596,-0.470368 1.59079,0.392245 0.200329,0.285538 0.296031,0.159261 0.241517,-0.318676 z m 1.900454,0.431828 c -0.02494,-0.04036 -0.09218,-0.07339 -0.14941,-0.07339 -0.233474,0 -0.335049,-0.339711 -0.398513,-1.33279 -0.06259,-0.979319 -0.109872,-1.235714 -0.227898,-1.235714 -0.181632,0 -0.248401,0.374223 -0.249957,1.400946 -0.002,1.289091 0.01025,1.31433 0.635473,1.31433 0.271753,0 0.418596,-0.02761 0.390305,-0.07339 z m 3.449159,-0.660266 c -0.112743,-0.971401 0.565482,-1.284267 1.223503,-0.564404 0.343514,0.3758 0.3461,0.339181 0.06045,-0.856076 -0.257401,-1.077064 -0.349554,-1.308962 -0.508166,-1.278771 -0.08888,0.01692 -0.124731,0.154341 -0.156263,0.598956 -0.04732,0.667255 -0.136673,0.779143 -0.622203,0.779143 -0.344289,0 -0.447997,-0.09002 -0.655197,-0.56874 -0.126578,-0.292446 -0.259474,-0.411468 -0.259474,-0.232384 0,0.258949 0.511992,1.950938 0.735815,2.431658 0.145992,0.313558 0.236023,0.160119 0.181532,-0.309382 z m -8.161011,-0.368045 c 0.331183,-0.786383 0.586594,-1.731996 0.529983,-1.962162 -0.0887,-0.360618 -0.404746,-0.09629 -0.404746,0.338516 0,0.269549 -0.166001,0.44771 -0.427211,0.458505 -0.701893,0.029 -0.820348,-0.100501 -0.820348,-0.896883 0,-0.318426 -0.02811,-0.578957 -0.06247,-0.578957 -0.08909,0 -0.586952,1.716493 -0.64388,2.219922 -0.0568,0.502252 0.03805,0.552632 0.231743,0.123096 0.07412,-0.164379 0.202071,-0.346009 0.284325,-0.403622 0.199417,-0.139677 0.631084,-0.132935 0.839596,0.01311 0.156403,0.109549 0.166613,0.161321 0.144754,0.734029 -0.01294,0.338893 -0.007,0.616008 0.01317,0.615814 0.02018,-2.2e-4 0.161966,-0.297812 0.315078,-0.66137 z m -3.070222,-0.4325 c 0.116557,-0.04559 0.09132,-0.06465 -0.133993,-0.10121 -0.90324,-0.146576 -1.439234,-1.001325 -1.114808,-1.777785 0.300872,-0.720088 1.560684,-0.735681 1.985834,-0.02458 l 0.146772,0.245489 0.0227,-0.273964 c 0.02871,-0.346426 -0.133411,-0.575246 -0.583028,-0.822912 -0.603277,-0.332306 -1.100807,-0.239281 -1.614818,0.301929 -0.536183,0.564556 -0.644685,1.041558 -0.375397,1.650331 0.274156,0.619774 1.107864,1.02129 1.666735,0.802703 z m 14.882155,-0.279294 c 0.327306,-0.238321 0.471711,-0.451036 0.247886,-0.365146 -0.278697,0.106946 -0.775228,0.131614 -0.936659,0.04654 -0.379854,-0.200195 -0.382896,-0.490304 -0.0084,-0.800238 l 0.275197,-0.227749 -0.412928,0.04798 c -0.360248,0.04186 -0.432804,0.0281 -0.56874,-0.10783 -0.0857,-0.0857 -0.155813,-0.206989 -0.155813,-0.269536 0,-0.198192 0.21013,-0.529615 0.439208,-0.692733 0.497835,-0.35449 0.03301,-0.382607 -0.561868,-0.03399 -0.359254,0.210536 -0.459042,0.451991 -0.329087,0.796283 0.143045,0.37897 0.767568,1.374943 1.052066,1.67781 0.314935,0.335267 0.410389,0.328162 0.959131,-0.07139 z m 1.302598,-0.98045 c 0,-0.04327 -0.08758,-0.228101 -0.194613,-0.410747 -0.291536,-0.497467 -0.09332,-0.553563 0.836739,-0.236799 0.375998,0.128059 0.53103,0.07552 0.238744,-0.0809 -0.192413,-0.102977 -0.400334,-0.520121 -0.550935,-1.105318 -0.139407,-0.541705 -0.327178,-0.781907 -0.660045,-0.844353 -0.413591,-0.07759 -1.137607,0.332166 -1.137607,0.643829 0,0.295738 0.961145,1.876724 1.240051,2.039759 0.156696,0.0916 0.227666,0.08989 0.227666,-0.0055 z M 17.913119,34.276468 c -0.219954,-0.375323 -0.249615,-0.808963 -0.06898,-1.008556 0.166581,-0.18407 0.225016,-0.172692 0.663285,0.129156 0.571439,0.393565 0.67036,0.210639 0.195068,-0.360723 -0.223833,-0.269076 -0.218094,-0.443255 0.0208,-0.631169 0.250834,-0.197306 0.362116,-0.191742 0.627266,0.03137 0.119919,0.100905 0.265037,0.183464 0.322484,0.183464 0.215906,0 0.08986,-0.219231 -0.354214,-0.616095 l -0.458661,-0.409897 -0.205952,0.237799 c -0.113273,0.13079 -0.486509,0.597707 -0.829413,1.037594 -0.742862,0.952963 -0.756001,1.042988 -0.212195,1.45397 0.201812,0.152519 0.394835,0.277474 0.428942,0.277677 0.03411,2.2e-4 -0.02368,-0.145861 -0.128425,-0.324587 z m 12.463063,-0.776399 c 0.672214,-0.04354 1.309958,-0.129783 1.651182,-0.223304 0.615249,-0.168624 2.181206,-0.898839 2.977683,-1.388513 3.152041,-1.937875 5.630625,-5.416061 6.101657,-8.562434 0.154998,-1.035336 0.181174,-4.599557 0.0408,-5.554704 C 41.023651,16.928439 40.700645,15.975625 40.198158,14.970712 39.395589,13.365673 38.478655,12.132251 37.09966,10.802734 35.703063,9.4562488 34.417059,8.685547 32.494478,8.042851 26.698044,6.1051717 20.653244,8.2013024 17.199253,13.346713 c -1.559121,2.322623 -1.929693,3.705541 -1.929693,7.201323 0,2.159447 0.09247,3.058402 0.439844,4.275808 0.562069,1.969843 2.389422,4.561944 4.266947,6.052663 1.685873,1.338552 3.863723,2.365831 5.561923,2.623526 0.539689,0.0819 3.573594,0.08192 4.837908,3.6e-5 z m 9.288866,-0.229211 c 0,-0.04565 -0.231165,-0.314633 -0.5137,-0.597729 -0.782604,-0.784156 -0.697132,-0.915091 0.36557,-0.560025 0.617728,0.206394 0.740315,0.227101 0.842485,0.142306 0.141618,-0.117531 0.120898,-0.183757 -0.253289,-0.809576 -0.591586,-0.989414 -0.42027,-1.158707 0.442824,-0.437593 0.568714,0.475162 0.792559,0.620253 0.857197,0.555615 0.102239,-0.102239 -0.928475,-1.223068 -1.513593,-1.645926 -0.345929,-0.249999 -0.626324,-0.300543 -0.693671,-0.12504 -0.05253,0.136886 0.09079,0.595271 0.384357,1.229364 0.388225,0.838539 0.292383,0.92377 -0.639927,0.569075 -0.827377,-0.314771 -1.079714,-0.369704 -1.220037,-0.265596 -0.100917,0.07487 -0.100781,0.105938 0.0013,0.303566 0.150198,0.290698 0.842923,0.993783 1.378987,1.399611 0.441613,0.334323 0.561469,0.385971 0.561469,0.241948 z M 16.606533,32.748433 c 0.188601,-0.425391 0.32457,-0.523925 0.650078,-0.471103 0.146601,0.02379 0.330747,0.0089 0.409215,-0.0331 0.178718,-0.09565 0.350906,-0.497691 0.348787,-0.814387 -0.0038,-0.562162 -0.479827,-1.158185 -0.925085,-1.158185 -0.253624,0 -0.843579,0.593064 -1.366611,1.373813 -0.442522,0.660569 -0.466031,0.877563 -0.05483,0.506066 0.477869,-0.431726 0.617533,-0.349036 0.698284,0.413429 0.02885,0.272445 0.06358,0.495354 0.07717,0.495354 0.01359,0 0.08694,-0.14035 0.162989,-0.311889 z m -1.121582,-1.882746 c 0.526054,-0.696199 0.95901,-1.493736 0.880159,-1.62132 -0.0617,-0.09983 -0.438973,-0.06184 -1.587316,0.159877 -0.943211,0.182107 -1.04951,0.236362 -0.805753,0.411257 0.09653,0.06926 0.290698,0.234233 0.431491,0.366611 l 0.255989,0.240688 -0.03481,0.782686 -0.03481,0.782688 0.21448,-0.252824 c 0.117963,-0.139052 0.42422,-0.530401 0.68057,-0.869663 z m 27.142553,-0.947423 c 0.17068,-0.608295 0.157825,-0.628714 -0.216108,-0.343284 -0.595508,0.454562 -0.895681,0.286603 -0.803686,-0.449698 0.02713,-0.217098 0.02217,-0.394123 -0.011,-0.393389 -0.03318,7.34e-4 -0.206296,0.100245 -0.38471,0.221136 -0.323356,0.219099 -0.557745,0.233788 -0.683542,0.04284 -0.09384,-0.142448 -0.06065,-0.544464 0.06707,-0.812289 0.163313,-0.342471 0.07429,-0.40973 -0.197569,-0.149271 -0.324517,0.310908 -0.542746,0.796624 -0.442269,0.984367 0.178604,0.333725 1.941853,1.326375 2.356047,1.326375 0.176241,0 0.208107,-0.04307 0.315771,-0.426782 z M 14.245192,28.880316 c 1.376215,-0.329956 2.0457,-0.876529 1.302208,-1.063134 -0.228203,-0.05728 -0.686767,0.08235 -0.686767,0.209109 0,0.150881 -0.317227,0.402784 -0.890236,0.706917 -0.613461,0.325604 -0.56899,0.349411 0.274795,0.147108 z m 29.039886,-0.56538 c 0.379382,-0.244655 0.528096,-0.597693 0.390496,-0.927016 -0.117999,-0.282411 -0.398856,-0.486769 -0.746523,-0.543188 -0.18216,-0.02956 -0.37467,0.01987 -0.73617,0.189041 -0.578384,0.270659 -0.810421,0.29097 -0.878368,0.07689 -0.06768,-0.213239 0.08806,-0.547303 0.30022,-0.643969 0.09818,-0.04473 0.177999,-0.106808 0.177381,-0.137945 -0.0028,-0.143508 -0.140661,-0.250689 -0.293356,-0.228152 -0.246883,0.03644 -0.472736,0.382852 -0.472736,0.72508 0,0.619086 0.655568,0.878918 1.316523,0.521799 0.372245,-0.201128 0.739651,-0.208136 0.842442,-0.01607 0.176307,0.329432 -0.0034,0.738683 -0.324351,0.738683 -0.189703,0 -0.33354,0.130281 -0.33354,0.302105 0,0.25965 0.30193,0.236844 0.757982,-0.05725 z m -29.194996,-0.310817 0.293543,-0.05751 -0.220157,-0.05707 c -0.270933,-0.07024 -0.550394,-0.239251 -0.550394,-0.332874 0,-0.03835 0.26295,-0.34888 0.584333,-0.690073 0.565758,-0.600632 0.725069,-0.877845 0.636751,-1.107997 -0.0636,-0.165737 -0.177222,-0.141672 -1.18344,0.250649 -1.032228,0.402463 -1.337431,0.570251 -1.230952,0.67673 0.04433,0.04433 0.317724,-0.01238 0.746643,-0.154882 1.032594,-0.343063 1.076677,-0.208281 0.212599,0.650015 -0.653125,0.648755 -0.666443,0.719072 -0.154941,0.818098 0.37284,0.07218 0.518429,0.07301 0.866015,0.0049 z m -1.088646,-4.233603 c 0.540051,-0.258849 1.232757,-1.017612 1.379192,-1.510713 0.150642,-0.507265 0.142554,-0.830317 -0.03519,-1.4058 -0.18608,-0.60246 -0.608426,-1.150202 -1.052722,-1.365282 -0.958952,-0.46422 -2.175636,-0.331019 -2.83627,0.310512 -0.5294305,0.514123 -0.7793125,1.580674 -0.5870573,2.505692 0.078935,0.379786 0.1443463,0.489684 0.5077873,0.853124 0.854863,0.854863 1.704721,1.053208 2.624265,0.612467 z m 31.970587,0.146515 c 0.77676,-0.264668 1.488042,-1.234942 1.570298,-2.142075 0.120727,-1.3314 -0.920365,-2.398298 -2.432335,-2.492627 -0.692697,-0.04322 -0.939708,0.04875 -1.530919,0.569948 -0.567754,0.500526 -0.668264,0.764969 -0.668896,1.759854 -4.4e-4,0.667915 0.02738,0.901438 0.133325,1.119626 0.188672,0.388572 0.854797,0.971728 1.309702,1.146573 0.471996,0.181414 1.152259,0.197677 1.618825,0.0387 z M 14.147989,18.231385 c 0.790203,-0.523408 0.921629,-1.435446 0.305177,-2.117785 -0.304339,-0.336867 -0.753203,-0.486422 -1.240563,-0.413338 -0.403211,0.06047 -0.707507,0.3016 -1.043584,0.826973 -0.399275,0.624167 -0.823193,0.806508 -1.252875,0.5389 -0.205438,-0.127947 -0.238504,-0.18979 -0.238504,-0.446069 0,-0.250237 0.04666,-0.343262 0.293544,-0.585259 0.455382,-0.446366 0.35034,-0.693297 -0.221981,-0.521825 -0.391534,0.117307 -0.606574,0.438646 -0.64451,0.963106 -0.04924,0.680697 0.308512,1.212874 0.943165,1.40302 0.461114,0.138154 0.636061,0.03997 1.46488,-0.822159 0.897308,-0.933365 0.993524,-0.967523 1.464175,-0.519804 0.167168,0.159022 0.296634,0.351066 0.296634,0.44001 0,0.09202 -0.198907,0.374575 -0.477008,0.677617 -0.454349,0.495096 -0.538262,0.642666 -0.428084,0.752843 0.112947,0.112948 0.462135,0.03401 0.779534,-0.17623 z m 31.1694,0.147217 c 0.628407,-0.07879 1.245929,-0.291449 1.245929,-0.429055 0,-0.203273 -0.336118,-0.246797 -1.573702,-0.203776 -1.596125,0.05548 -3.196378,0.301822 -3.196378,0.492041 0,0.03804 0.0743,0.08501 0.165118,0.104393 0.09081,0.01938 0.231165,0.0492 0.31189,0.06627 0.309555,0.06546 2.454547,0.04443 3.047143,-0.02987 z m -3.352312,-1.313513 c 0.173433,-0.159864 0.460161,-0.472162 0.637174,-0.693996 l 0.321843,-0.403333 0.413558,0.394467 c 0.747025,0.712542 1.555013,0.708717 2.102738,-0.01 0.195247,-0.256183 0.205605,-0.30887 0.205605,-1.045825 0,-0.681017 -0.02247,-0.820986 -0.183465,-1.142981 -0.180633,-0.361266 -0.189201,-0.367265 -0.555113,-0.388638 -0.810683,-0.04735 -4.020676,0.895859 -4.123116,1.211522 -0.05041,0.155336 0.321076,0.185585 1.118514,0.09108 0.425607,-0.05044 0.794597,-0.07094 0.819979,-0.04556 0.02538,0.02538 -0.187048,0.35224 -0.472063,0.726353 -0.573759,0.753122 -0.869792,1.300062 -0.800872,1.479664 0.06871,0.179054 0.170567,0.144892 0.515218,-0.172797 z M 15.374334,14.411122 c 0.789239,-0.367564 1.244579,-1.068594 1.304933,-2.009041 0.02785,-0.433997 0.0067,-0.574447 -0.125878,-0.834243 -0.107969,-0.211636 -0.199544,-0.304709 -0.283936,-0.288581 -0.102203,0.01953 -0.133181,0.146097 -0.172544,0.704969 -0.06374,0.905 -0.291642,1.395105 -0.783059,1.683985 -0.303464,0.178391 -0.41526,0.201324 -0.966918,0.198341 -0.495372,-0.0027 -0.687108,-0.03653 -0.931418,-0.16444 -0.758956,-0.397364 -1.001306,-1.315573 -0.568256,-2.152999 0.06084,-0.117643 0.340591,-0.466187 0.621678,-0.774543 0.67504,-0.740524 0.691024,-1.0065928 0.04729,-0.7872521 -0.929047,0.3165591 -1.743739,1.7246421 -1.561105,2.6981601 0.116329,0.620091 0.999372,1.577011 1.700819,1.843112 0.438283,0.166268 1.224559,0.112519 1.718391,-0.117468 z m 26.762959,-0.647273 c 0.574434,-0.260797 0.977339,-1.090482 0.871687,-1.795024 -0.09876,-0.658542 -0.658307,-1.255676 -1.345255,-1.435607 -0.762265,-0.19966 -1.619663,0.272914 -1.992913,1.098438 -0.285817,0.632149 -0.16439,1.243026 0.348918,1.755335 0.188366,0.188001 0.458067,0.378455 0.599334,0.423231 0.423158,0.134124 1.170975,0.111283 1.518229,-0.04637 z m -1.949739,-3.734052 c 0.883126,-0.8810224 1.605684,-1.6581143 1.605684,-1.7268705 0,-0.2031792 -0.197798,-0.219566 -0.456057,-0.037783 -0.13261,0.093342 -0.593371,0.485661 -1.023915,0.8718208 -0.783198,0.7024618 -1.122363,0.9442217 -1.206546,0.8600373 -0.05053,-0.050526 0.09121,-0.8991717 0.374601,-2.2428843 0.191322,-0.9071692 0.219445,-1.6277274 0.06551,-1.6783844 -0.179877,-0.059193 -1.293532,0.7999928 -2.205882,1.7018417 -0.877407,0.8673076 -1.16934,1.2657303 -1.029727,1.4053447 0.08201,0.08201 0.547512,-0.2101678 1.078868,-0.6771647 0.639139,-0.5617244 1.381622,-1.1304776 1.47579,-1.1304776 0.12644,0 0.06161,0.416575 -0.2684,1.7245673 -0.477225,1.8914877 -0.508966,2.5318117 -0.125505,2.5318117 0.06044,0 0.832455,-0.720837 1.715582,-1.601859 z m -22.584513,1.143198 c 0.02434,-0.09082 0.0447,-0.438624 0.04525,-0.772909 0.0013,-0.7988561 0.108335,-1.0415813 0.600819,-1.3626869 0.54792,-0.3572494 0.732148,-0.3786061 1.37623,-0.1595396 0.875058,0.2976261 1.291043,0.2074121 0.827606,-0.1794813 C 20.091804,8.396883 17.575154,6.9501961 16.916274,6.6653344 16.147766,6.3330765 16.074261,6.3601732 16.130456,6.9550164 c 0.06524,0.6906075 0.906764,3.7701576 1.162638,4.2546716 0.09473,0.17938 0.257197,0.160147 0.309947,-0.03669 z M 35.26358,8.4743831 C 35.377087,8.3608756 35.39491,8.2939353 35.339295,8.1900163 35.271751,8.0638084 34.842418,7.8246052 34.484607,7.7138256 34.209832,7.6287544 33.990802,7.3322731 34.044543,7.1181521 c 0.06649,-0.2649168 0.615081,-0.8436625 0.799704,-0.8436625 0.08291,0 0.405202,0.1040386 0.716205,0.2311968 0.90995,0.3720459 1.062033,0.1436313 0.260986,-0.391977 C 34.93793,5.5229643 34.86498,5.3440609 35.283365,4.7941312 c 0.2973,-0.3907733 0.471532,-0.4202759 1.028176,-0.1741011 0.232242,0.1027084 0.521424,0.1867426 0.642627,0.1867426 0.245345,0 0.354957,-0.162516 0.219609,-0.3256012 -0.149481,-0.1801127 -1.275622,-0.6978688 -1.6208,-0.7451808 l -0.331325,-0.045413 -0.45155,0.7966015 c -0.724926,1.278877 -1.416236,2.6837034 -1.416236,2.8779645 0,0.2534273 0.469128,0.6748272 1.105909,0.9933958 0.290565,0.1453634 0.556886,0.2642971 0.591825,0.2642971 0.03494,0 0.13033,-0.066804 0.21198,-0.1484535 z M 21.450682,8.3880019 C 21.596704,8.2419799 21.551933,7.9733518 21.281895,7.3752773 21.011671,6.7767922 20.977907,6.6414188 21.098859,6.6414188 c 0.0406,0 0.533291,0.2146536 1.094872,0.477008 0.56158,0.2623544 1.104327,0.477008 1.206105,0.477008 0.461958,0 0.242017,-0.3359922 -0.558492,-0.8531775 -0.572743,-0.370032 -0.583942,-0.4101799 -0.339186,-1.215986 0.130786,-0.430583 0.142812,-0.5587359 0.07399,-0.7884482 -0.133112,-0.4442878 -0.496112,-0.881116 -0.869425,-1.0462499 -0.291628,-0.1290011 -0.386316,-0.1382489 -0.72307,-0.070619 -0.381498,0.076616 -1.666209,0.6726982 -1.7532,0.8134528 -0.0819,0.1325224 1.434479,3.2630798 1.842176,3.8031539 0.197619,0.2617851 0.247043,0.2814528 0.378055,0.150441 z m 10.253933,-1.555766 c 0.104529,-0.1595314 0.316987,-0.9522237 0.660878,-2.4657782 0.06878,-0.3027166 0.17265,-0.6701581 0.230823,-0.8165366 0.09567,-0.2407405 0.137595,-0.26973 0.439223,-0.3037278 0.68651,-0.07738 0.641665,-0.4360885 -0.08868,-0.7093463 -0.666243,-0.2492735 -1.886946,-0.1743277 -1.473975,0.090495 0.422423,0.2708833 0.445561,0.311388 0.433173,0.7583075 -0.0066,0.2367334 -0.126656,0.9257765 -0.266877,1.5312068 -0.322827,1.3938648 -0.382646,1.8417411 -0.264928,1.9835825 0.124775,0.150345 0.196928,0.1354492 0.330366,-0.068203 z"
       id="path2151"
       transform="scale(0.26458334)" />
    <path
       style="fill:#f4e3d7;fill-rule:evenodd;stroke:#ffffff;stroke-width:0.132095;stroke-linecap:round;stroke-linejoin:round;paint-order:markers stroke fill"
       d="m 43.884734,23.484095 c -0.04036,-0.01346 -0.163595,-0.04436 -0.273851,-0.06865 -0.273849,-0.06034 -0.692644,-0.442461 -0.882983,-0.805655 -0.124086,-0.236774 -0.156775,-0.424981 -0.154161,-0.887578 0.0037,-0.661548 0.114007,-0.981016 0.484102,-1.402531 0.632079,-0.719899 1.72013,-0.603278 2.503814,0.268368 0.684554,0.761388 0.595125,1.611635 -0.249373,2.370911 -0.442584,0.397921 -1.092363,0.636949 -1.427548,0.525137 z"
       id="path2190"
       transform="scale(0.26458334)" />
    <path
       style="fill:#f4e3d7;fill-rule:evenodd;stroke:#ffffff;stroke-width:0.132095;stroke-linecap:round;stroke-linejoin:round;paint-order:markers stroke fill"
       d="m 43.815158,16.071501 c -0.176523,-0.181629 -0.392043,-0.477091 -0.478934,-0.656583 -0.168057,-0.34716 -0.132064,-0.543497 0.138529,-0.755658 0.183249,-0.143677 1.074267,-0.399055 1.300671,-0.37279 0.186644,0.02165 0.212997,0.06297 0.296021,0.464085 0.165471,0.799447 0.138595,0.953517 -0.230763,1.322876 -0.430085,0.430085 -0.605976,0.429754 -1.025524,-0.0019 z"
       id="path2229"
       transform="scale(0.26458334)" />
    <path
       style="fill:#f4e3d7;fill-rule:evenodd;stroke:#ffffff;stroke-width:0.132095;stroke-linecap:round;stroke-linejoin:round;paint-order:markers stroke fill"
       d="m 41.059379,13.601346 c -0.255351,-0.09669 -0.718834,-0.558857 -0.886848,-0.884325 -0.177985,-0.344784 -0.178269,-0.650739 -9.23e-4,-0.996556 0.463537,-0.903882 1.679661,-1.107399 2.167579,-0.362742 0.287527,0.438822 0.201539,1.260313 -0.177055,1.691507 -0.317007,0.361051 -0.872653,0.639247 -1.102753,0.552116 z"
       id="path2268"
       transform="scale(0.26458334)" />
    <path
       style="fill:#f4e3d7;fill-rule:evenodd;stroke:#ffffff;stroke-width:0.132095;stroke-linecap:round;stroke-linejoin:round;paint-order:markers stroke fill"
       d="M 20.657159,6.1105161 C 20.436382,5.7504992 20.201219,5.0959037 20.190557,4.8116918 20.176763,4.4439642 20.524817,4.219686 21.109283,4.219686 c 0.511097,0 0.682335,0.1291788 0.756991,0.57106 0.103071,0.6100755 -0.228334,1.2198119 -0.786573,1.4471777 l -0.275579,0.1122411 z"
       id="path2307"
       transform="scale(0.26458334)" />
    <path
       style="fill:#f4e3d7;fill-rule:evenodd;stroke:#ffffff;stroke-width:0.132095;stroke-linecap:round;stroke-linejoin:round;paint-order:markers stroke fill"
       d="m 11.448192,23.268425 c -0.367338,-0.134254 -0.861112,-0.665589 -0.976527,-1.05081 -0.127336,-0.425011 -0.105259,-1.036452 0.04974,-1.377664 0.285895,-0.629353 0.92851,-1.057972 1.590504,-1.060854 1.029454,-0.0045 1.905474,1.183473 1.642589,2.227485 -0.102694,0.407831 -0.551008,0.94378 -0.966972,1.155989 -0.385689,0.196763 -0.965263,0.24257 -1.339336,0.105854 z"
       id="path2346"
       transform="scale(0.26458334)" />
    <path
       style="fill:#f4e3d7;fill-rule:evenodd;stroke:#ffffff;stroke-width:0.0467025;stroke-linecap:round;stroke-linejoin:round;paint-order:markers stroke fill"
       d="m 15.118678,30.24066 c -0.125919,-0.09121 -0.16095,-0.148951 -0.160819,-0.265053 2.32e-4,-0.205948 0.235875,-0.383633 0.509458,-0.384153 0.25803,-4.9e-4 0.326624,0.173493 0.181393,0.460092 -0.13683,0.270022 -0.325442,0.337318 -0.530032,0.189114 z"
       id="path2385"
       transform="scale(0.26458334)" />
    <path
       style="fill:#f4e3d7;fill-rule:evenodd;stroke:#ffffff;stroke-width:0.0467025;stroke-linecap:round;stroke-linejoin:round;paint-order:markers stroke fill"
       d="m 16.860275,31.822911 c -0.315282,-0.06677 -0.42057,-0.244994 -0.292749,-0.495544 0.111889,-0.21932 0.451536,-0.515831 0.653022,-0.570086 0.24571,-0.06616 0.360107,0.09148 0.377638,0.520398 0.01035,0.253111 0.0068,0.278771 -0.04987,0.361838 -0.09073,0.132965 -0.205557,0.188946 -0.406715,0.19829 -0.09517,0.0044 -0.221764,-0.0023 -0.281322,-0.0149 z"
       id="path2424"
       transform="scale(0.26458334)" />
    <path
       style="fill:#f4e3d7;fill-rule:evenodd;stroke:#ffffff;stroke-width:0.0467025;stroke-linecap:round;stroke-linejoin:round;paint-order:markers stroke fill"
       d="m 26.056544,36.337941 c -0.09056,-0.07124 -0.13341,-0.210629 -0.116151,-0.377858 0.03545,-0.343465 0.310701,-0.587832 0.421275,-0.374004 0.131874,0.255015 0.01998,0.775068 -0.171625,0.797673 -0.03688,0.0044 -0.09515,-0.01565 -0.133499,-0.04581 z"
       id="path2463"
       transform="scale(0.26458334)" />
    <path
       style="fill:#f4e3d7;fill-rule:evenodd;stroke:#ffffff;stroke-width:0.0467025;stroke-linecap:round;stroke-linejoin:round;paint-order:markers stroke fill"
       d="m 36.634118,33.476586 c -0.320265,-0.217804 -0.39725,-0.747158 -0.140126,-0.963514 0.244014,-0.205324 0.662403,-0.129316 0.863548,0.156879 0.144887,0.206149 0.113167,0.473463 -0.08179,0.689257 -0.198076,0.219246 -0.429572,0.261595 -0.641632,0.117378 z"
       id="path2502"
       transform="scale(0.26458334)" />
    <path
       style="fill:#f4e3d7;fill-rule:evenodd;stroke:#ffffff;stroke-width:0.0467025;stroke-linecap:round;stroke-linejoin:round;paint-order:markers stroke fill"
       d="m 17.207902,8.7890969 c -0.05885,-0.065023 -0.08911,-0.1549904 -0.189339,-0.5629115 -0.09062,-0.3687909 -0.113778,-0.6458895 -0.06206,-0.7425238 0.110003,-0.2055412 0.95517,0.2824792 1.103338,0.6370939 0.07966,0.1906536 0.01851,0.3733174 -0.16676,0.4981741 -0.11749,0.079176 -0.477799,0.21562 -0.569391,0.21562 -0.04106,0 -0.09316,-0.020454 -0.115787,-0.045453 z"
       id="path2541"
       transform="scale(0.26458334)" />
    <path
       style="fill:#f4e3d7;fill-rule:evenodd;stroke:#ffffff;stroke-width:0.132095;stroke-linecap:round;stroke-linejoin:round;paint-order:markers stroke fill"
       d="m 22.981394,26.120298 c -3.800755,-0.591193 -5.012273,-2.248334 -3.243875,-4.437046 0.581052,-0.719157 1.547472,-1.474202 3.004639,-2.347466 l 0.65302,-0.391347 0.136809,0.168952 c 0.33676,0.415881 0.209596,0.781261 -0.455064,1.307522 -0.927076,0.734037 -1.231929,1.042963 -1.359912,1.378081 -0.124034,0.324779 -0.123475,0.340351 0.01911,0.532511 0.27237,0.367071 0.559695,0.417663 2.334437,0.411043 3.100278,-0.01157 5.725794,-0.550557 8.020611,-1.646549 1.442775,-0.689061 2.425553,-1.432482 2.550194,-1.929089 0.145002,-0.577738 -0.09144,-0.776236 -1.137464,-0.954915 -0.498365,-0.08513 -0.652255,-0.14289 -0.781731,-0.293415 -0.165773,-0.192722 -0.297496,-0.718422 -0.213903,-0.853678 0.06809,-0.110177 1.072482,-0.09345 2.045154,0.03405 1.401691,0.183745 2.212109,0.494389 2.679989,1.027274 0.344763,0.392663 0.461822,0.736051 0.504419,1.479699 0.04826,0.842529 -0.06295,1.104488 -0.807208,1.901436 -1.666155,1.784104 -4.680866,3.3617 -7.686359,4.022268 -1.889755,0.415343 -4.016157,0.710921 -5.026481,0.698698 -0.323145,-0.0039 -0.879518,-0.05252 -1.236384,-0.108033 z"
       id="path2580"
       transform="scale(0.26458334)" />
    <path
       style="fill:#f4e3d7;fill-rule:evenodd;stroke:#ffffff;stroke-width:0.0467025;stroke-linecap:round;stroke-linejoin:round;paint-order:markers stroke fill"
       d="m 26.844757,22.391616 c -0.183941,-0.209498 -0.282906,-0.471964 -0.562669,-1.492263 -0.119342,-0.435241 -0.329064,-1.164967 -0.46605,-1.621613 -0.715067,-2.383707 -1.346169,-5.098353 -1.185265,-5.098353 0.153373,0 0.917653,2.355516 1.519966,4.684547 0.242459,0.937544 0.358617,1.28299 0.431414,1.28299 0.180646,0 -0.544352,-3.069949 -1.207088,-5.111325 -0.338163,-1.041617 -0.478276,-1.677064 -0.428731,-1.944398 0.02044,-0.110296 0.07844,-0.183159 0.145806,-0.183159 0.106573,0 0.483223,1.291977 0.90495,3.10414 0.498543,2.142236 0.811723,3.319317 0.972544,3.655282 0.126915,0.265134 0.22992,0.599558 0.375435,1.218916 0.0637,0.271134 0.157305,0.661654 0.208008,0.867822 0.130559,0.530879 0.125567,0.544631 -0.09084,0.250235 -0.178054,-0.242217 -0.223654,-0.274467 -0.258499,-0.18282 -0.01402,0.03688 -0.02639,0.150943 -0.02749,0.253473 -0.0011,0.10253 -0.016,0.233121 -0.03312,0.290202 -0.02799,0.09332 -0.04047,0.104571 -0.123874,0.111605 -0.07873,0.0066 -0.105106,-0.0062 -0.174498,-0.08528 z"
       id="path2619"
       transform="scale(0.26458334)" />
    <path
       style="fill:#f4e3d7;fill-rule:evenodd;stroke:#ffffff;stroke-width:0.0467025;stroke-linecap:round;stroke-linejoin:round;paint-order:markers stroke fill"
       d="m 24.235349,19.465847 c -0.155487,-0.237896 -0.437375,-1.135422 -1.065463,-3.392415 -0.408258,-1.46705 -0.484622,-1.78295 -0.475069,-1.965272 0.0071,-0.136112 0.01374,-0.150377 0.08049,-0.173749 0.04883,-0.0171 0.08719,-0.01654 0.116756,0.0017 0.125818,0.07756 0.267691,0.500138 0.368692,1.098181 0.119602,0.708182 0.326503,1.502796 0.638763,2.453205 0.315959,0.961664 0.484393,1.705927 0.439828,1.943477 -0.02017,0.107533 -0.04998,0.117534 -0.103997,0.03489 z"
       id="path2658"
       transform="scale(0.26458334)" />
    <path
       style="fill:#f4e3d7;fill-rule:evenodd;stroke:#ffffff;stroke-width:0.0467025;stroke-linecap:round;stroke-linejoin:round;paint-order:markers stroke fill"
       d="m 31.010366,21.139352 c -0.09819,-0.175027 0.008,-0.689485 0.48957,-2.372073 0.457556,-1.598643 0.692494,-2.548653 0.973484,-3.936448 0.179009,-0.884114 0.250708,-1.182007 0.376212,-1.563056 0.09952,-0.302161 0.155733,-0.381161 0.239366,-0.336402 0.170751,0.09138 0.138846,0.665376 -0.08696,1.56451 -0.05125,0.204088 -0.179195,0.668797 -0.284313,1.032687 -0.319014,1.104346 -0.517399,1.887395 -0.946562,3.736197 -0.227984,0.982136 -0.455473,1.711829 -0.573013,1.837993 -0.05042,0.05412 -0.165382,0.07652 -0.187781,0.03659 z"
       id="path2734"
       transform="scale(0.26458334)" />
    <path
       style="fill:#f4e3d7;fill-rule:evenodd;stroke:#ffffff;stroke-width:0.0467025;stroke-linecap:round;stroke-linejoin:round;paint-order:markers stroke fill"
       d="m 24.911088,22.169658 c -0.12056,-0.143277 -0.248051,-0.640462 -0.350565,-1.367126 -0.06439,-0.456404 -0.07753,-0.618667 -0.05329,-0.657886 0.04972,-0.08045 0.479718,1.495895 0.533206,1.954701 0.01456,0.12489 0.01085,0.149188 -0.02279,0.149188 -0.0221,0 -0.07005,-0.03549 -0.106555,-0.07888 z"
       id="path2773"
       transform="scale(0.26458334)" />
    <path
       style="fill:#f4e3d7;fill-rule:evenodd;stroke:#ffffff;stroke-width:0.0467025;stroke-linecap:round;stroke-linejoin:round;paint-order:markers stroke fill"
       d="m 28.946263,28.131749 c -0.02982,-0.07492 -0.132028,-0.410593 -0.227138,-0.745943 -0.198782,-0.700885 -0.230986,-0.932338 -0.144406,-1.037832 0.06682,-0.08142 0.120928,-0.05543 0.207673,0.09975 0.129749,0.232115 0.214146,0.555469 0.278444,1.066822 0.07997,0.635976 0.02047,0.956512 -0.114573,0.6172 z"
       id="path2812"
       transform="scale(0.26458334)" />
    <path
       style="fill:#f4e3d7;fill-rule:evenodd;stroke:#ffffff;stroke-width:0.0467025;stroke-linecap:round;stroke-linejoin:round;paint-order:markers stroke fill"
       d="m 26.862586,29.282034 c -0.223714,-0.175973 -0.47455,-1.24686 -0.32669,-1.394729 0.03354,-0.03354 0.05277,-0.03767 0.07445,-0.01599 0.03825,0.03825 0.07237,0.219071 0.07379,0.390995 0.0015,0.187134 0.05794,0.317003 0.137653,0.317003 0.172108,0 0.37691,-0.429077 0.488523,-1.023495 0.09987,-0.531889 0.218044,-0.922441 0.27911,-0.922441 0.136254,0 -0.08361,1.299016 -0.356522,2.106381 -0.08692,0.257142 -0.20093,0.497588 -0.262251,0.553083 -0.03955,0.03579 -0.05017,0.03473 -0.108067,-0.01081 z"
       id="path2851"
       transform="scale(0.26458334)" />
    <path
       style="fill:#f4e3d7;fill-rule:evenodd;stroke:#ffffff;stroke-width:0.0467025;stroke-linecap:round;stroke-linejoin:round;paint-order:markers stroke fill"
       d="m 26.248544,27.481863 c -0.06933,-0.08353 -0.06019,-0.557441 0.0112,-0.581239 0.04994,-0.01665 0.126281,0.200878 0.126281,0.359852 0,0.117701 -0.01174,0.162435 -0.05359,0.204294 -0.04531,0.04531 -0.05828,0.04795 -0.08389,0.01709 z"
       id="path2890"
       transform="scale(0.26458334)" />
  </g>
  <g
     inkscape:groupmode="layer"
     id="layer3"
     inkscape:label="Camada 3">
    <text
       xml:space="preserve"
       style="font-style:normal;font-variant:normal;font-weight:normal;font-stretch:normal;font-size:4.46468px;line-height:1.25;font-family:Jokerman;-inkscape-font-specification:'Jokerman, Normal';font-variant-ligatures:normal;font-variant-caps:normal;font-variant-numeric:normal;font-variant-east-asian:normal;fill:#ffffff;stroke-width:0.223233"
       x="12.373153"
       y="5.0104198"
       id="text20315"
       transform="scale(1.0205159,0.97989656)"><tspan
         sodipodi:role="line"
         id="tspan20313"
         style="font-style:normal;font-variant:normal;font-weight:normal;font-stretch:normal;font-size:4.46468px;font-family:Jokerman;-inkscape-font-specification:'Jokerman, Normal';font-variant-ligatures:normal;font-variant-caps:normal;font-variant-numeric:normal;font-variant-east-asian:normal;fill:#ffffff;stroke-width:0.223233"
         x="12.373153"
         y="5.0104198">FLOT</tspan></text>
  </g>
</svg>
