<?xml version="1.0" encoding="UTF-8" standalone="no"?>
<!-- Created with Inkscape (http://www.inkscape.org/) -->

<svg
   width="40"
   height="40"
   viewBox="0 0 10.583333 10.583334"
   version="1.1"
   id="svg5"
   sodipodi:docname="icone.svg"
   inkscape:export-filename="C:\Users\ETEOT\Downloads\logositeflot.png"
   inkscape:export-xdpi="96"
   inkscape:export-ydpi="96"
   inkscape:version="1.1 (c68e22c387, 2021-05-23)"
   xmlns:inkscape="http://www.inkscape.org/namespaces/inkscape"
   xmlns:sodipodi="http://sodipodi.sourceforge.net/DTD/sodipodi-0.dtd"
   xmlns="http://www.w3.org/2000/svg"
   xmlns:svg="http://www.w3.org/2000/svg">
  <sodipodi:namedview
     id="namedview7"
     pagecolor="#ffffff"
     bordercolor="#666666"
     borderopacity="1.0"
     inkscape:pageshadow="2"
     inkscape:pageopacity="0.0"
     inkscape:pagecheckerboard="0"
     inkscape:document-units="px"
     showgrid="false"
     units="px"
     inkscape:zoom="4.8177329"
     inkscape:cx="100.15084"
     inkscape:cy="29.266878"
     inkscape:window-width="1280"
     inkscape:window-height="971"
     inkscape:window-x="-8"
     inkscape:window-y="-8"
     inkscape:window-maximized="1"
     inkscape:current-layer="layer2"
     width="40px" />
  <defs
     id="defs2" />
  <g
     inkscape:groupmode="layer"
     id="layer2"
     inkscape:label="Camada 2"
     style="display:inline" />
  <g
     inkscape:label="Camada 1"
     inkscape:groupmode="layer"
     id="layer1"
     style="display:inline">
    <path
       style="fill:#ffffff;fill-rule:evenodd;stroke:#ffffff;stroke-width:0.18681;stroke-linecap:round;stroke-linejoin:round;paint-order:markers stroke fill"
       d=""
       id="path622"
       transform="scale(0.26458334)" />
    <path
       style="fill:#000000;fill-opacity:0;stroke-width:0.0666981"
       d="M 4.4397425,10.36714 C 3.3977175,10.168805 2.5567295,9.7447369 1.8035295,9.0378289 1.2357535,8.5049494 0.77482054,7.8382847 0.52550714,7.1893755 0.27009184,6.5245848 0.09818974,5.4890319 0.15451834,4.9545065 0.42232234,2.4132058 2.0017515,0.64983927 4.4432445,0.16632417 c 0.691456,-0.1369366 0.791954,-0.1414575 1.359056,-0.061137 1.482092,0.2099141 2.6175955,0.81695751 3.4797395,1.86028163 1.55534,1.8821943 1.556842,4.695543 0.0035,6.5752077 C 8.093892,9.9826721 6.1900015,10.700279 4.4397325,10.367139 Z m 2.108092,-0.272379 C 8.318718,9.6189049 9.678903,8.2435019 10.14434,6.4580158 10.354615,5.6513737 10.284094,4.2657516 9.998102,3.5846425 9.805409,3.1257328 9.573144,2.6392517 9.509517,2.5612958 9.473951,2.5177211 9.308223,2.3092489 9.141232,2.0980241 8.522424,1.3152992 7.4587445,0.64142507 6.4581595,0.39821187 5.8607015,0.25298687 4.7492555,0.25425077 4.1550275,0.40083087 2.2795785,0.86345368 0.89438854,2.2669397 0.45763554,4.1470586 -0.17803626,6.8834741 1.6112065,9.6419948 4.3608325,10.164717 c 0.623394,0.118511 1.602136,0.0872 2.187002,-0.06996 z M 4.9198295,9.6712259 c -0.09051,-0.169754 -0.304654,-0.181847 -0.397161,-0.02243 -0.03788,0.06528 -0.06875,0.07995 -0.06988,0.03321 -0.0011,-0.04605 0.08614,-0.225897 0.193887,-0.399662 0.20862,-0.3364315 0.207633,-0.3369367 0.337767,0.172725 0.08235,0.3225 0.04992,0.4309622 -0.06461,0.216152 z m -0.069625,-0.343781 c 0,-0.07567 -0.02996,-0.119004 -0.06657,-0.09629 -0.03662,0.02271 -0.06657,0.08463 -0.06657,0.137589 0,0.05296 0.02996,0.09629 0.06657,0.09629 0.03662,0 0.06657,-0.06192 0.06657,-0.137589 z m 0.399442,0.104178 c 0,-0.202138 0.02996,-0.367524 0.06657,-0.367524 0.03662,0 0.06657,0.148145 0.06657,0.329213 0,0.257346 0.02543,0.335884 0.116504,0.359773 0.07168,0.0188 0.04606,0.03354 -0.06657,0.03831 -0.178466,0.0076 -0.183077,-0.0015 -0.183078,-0.359773 z m 1.041163,-0.0437 c -0.06095,-0.189422 -0.09819,-0.357074 -0.08277,-0.3725598 0.01543,-0.015486 0.04834,0.036003 0.07313,0.1144208 0.03106,0.09823 0.0899,0.136147 0.189156,0.121907 0.111609,-0.01601 0.141249,-0.06206 0.13154,-0.204363 -0.01626,-0.2382483 0.08389,-0.2381982 0.135756,6.7e-5 0.022,0.101069 0.05945,0.258937 0.08321,0.350818 0.04038,0.156128 0.03693,0.158931 -0.05273,0.04285 -0.144071,-0.186523 -0.358147,-0.116155 -0.334268,0.109875 0.02904,0.274908 -0.02018,0.218804 -0.14304,-0.163017 z m -2.087928,0.110526 c 0.01207,-0.162699 -0.01343,-0.204502 -0.13533,-0.221875 -0.106409,-0.01517 -0.168264,0.0238 -0.212145,0.133645 -0.100877,0.252517 -0.07838,-0.05673 0.02761,-0.379529 l 0.08776,-0.2672902 0.007,0.2171735 c 0.006,0.1852347 0.03146,0.2171737 0.173415,0.2171737 0.122052,0 0.166434,-0.03564 0.166434,-0.133645 0,-0.073505 0.03053,-0.1336456 0.06784,-0.1336456 0.07719,0 0.02701,0.2627786 -0.108467,0.5679926 l -0.08898,0.200468 z m -1.106562,-0.222435 c -0.0606,-0.06721 -0.110179,-0.187492 -0.110179,-0.267291 0,-0.1685895 0.219051,-0.4123798 0.370532,-0.4123798 0.174559,0 0.361896,0.1317127 0.359755,0.2529357 -0.0019,0.1067705 -0.0067,0.1066102 -0.06988,-0.00235 -0.03897,-0.067149 -0.146934,-0.1169382 -0.253584,-0.1169382 -0.387179,0 -0.37852,0.5459665 0.0099,0.6211445 0.134649,0.02606 0.132351,0.02977 -0.02355,0.03798 -0.09502,0.005 -0.22234,-0.04589 -0.282938,-0.113101 z m 3.918365,-0.143762 C 6.8135915,8.812509 6.8088805,8.755391 6.9761845,8.6655165 c 0.186448,-0.1001571 0.258493,-0.080967 0.11253,0.029975 -0.171683,0.130492 -0.09384,0.3251681 0.107883,0.2697924 0.126745,-0.034793 0.13241,-0.030033 0.03638,0.030571 -0.175454,0.1107287 -0.0726,0.2872487 0.139406,0.2392487 0.166211,-0.03763 0.168231,-0.03484 0.04483,0.06185 -0.184644,0.144681 -0.216023,0.131841 -0.402527,-0.164704 z m 0.475702,-0.3521466 c -0.15673,-0.2627031 -0.161017,-0.2904479 -0.05717,-0.3700463 0.187366,-0.1436213 0.376628,-0.073119 0.401888,0.1497067 0.0123,0.1085166 0.072222,0.23649 0.1331485,0.2843858 0.09373,0.073682 0.08118,0.076452 -0.08153,0.018002 -0.2257755,-0.081103 -0.2931655,-0.042596 -0.1751805,0.100099 0.04849,0.058641 0.05538,0.1018494 0.01625,0.1018494 -0.03738,0 -0.144211,-0.1277987 -0.2374,-0.2839966 z m 0.276573,-0.2014375 c 0.0256,-0.1334307 -0.164262,-0.2325788 -0.260464,-0.1360168 -0.09317,0.093513 0.0045,0.2975499 0.130773,0.2731449 0.05905,-0.011415 0.117411,-0.073122 0.129691,-0.1371281 z M 2.4936025,8.8970052 C 2.3566335,8.7929416 2.3473985,8.8164899 2.6960785,8.380654 l 0.145825,-0.1822748 0.155336,0.1299346 c 0.08544,0.071464 0.119656,0.130935 0.07605,0.1321578 -0.04361,0.00122 -0.0987,-0.029307 -0.122431,-0.067844 -0.0294,-0.047752 -0.07359,-0.0447 -0.138756,0.00958 -0.08254,0.068755 -0.08031,0.096618 0.01624,0.2037128 0.121677,0.1349543 0.03525,0.174796 -0.09518,0.043877 -0.133063,-0.1335611 -0.266686,0.045435 -0.160874,0.2155003 0.09682,0.1556122 0.08871,0.1588812 -0.07868,0.031707 z M 4.1692695,8.5771954 C 3.6063875,8.3797639 3.0597805,8.0048669 2.6951765,7.5661703 2.0635415,6.8061784 1.8984725,6.344295 1.8931625,5.322031 c -0.0047,-0.908342 0.09904,-1.3187397 0.482296,-1.9075711 1.023849,-1.5730483 2.930495,-2.0815941 4.611319,-1.229944 0.752255,0.3811571 1.5064735,1.3310804 1.7218095,2.1685869 0.101683,0.3954741 0.08437,1.549675 -0.02886,1.9242639 -0.281117,0.929968 -0.9908075,1.7456412 -1.8929965,2.175691 -0.481276,0.2294114 -0.537858,0.2404398 -1.336045,0.2604024 -0.736225,0.018414 -0.885755,0.00251 -1.281413,-0.1362647 z m 0.948092,-1.3209151 c 0.04439,-0.1857455 0.06533,-0.3531583 0.04654,-0.372027 -0.0188,-0.018869 -0.05477,0.087999 -0.07993,0.2374863 -0.0446,0.2649925 -0.167192,0.3826177 -0.167192,0.1604218 0,-0.061254 -0.01644,-0.094872 -0.03653,-0.074708 -0.05085,0.051041 0.03914,0.3865469 0.103677,0.3865469 0.02899,0 0.08904,-0.1519741 0.133433,-0.33772 z M 5.5384655,7.039205 c -0.02197,-0.1358919 -0.068,-0.247076 -0.102294,-0.247076 -0.03429,0 -0.04297,0.067658 -0.01929,0.1503509 0.02368,0.082693 0.05839,0.2052397 0.07714,0.2723263 0.05714,0.2044833 0.08689,0.08693 0.04445,-0.1756012 z M 4.8291085,6.980068 c -0.02125,-0.053306 -0.03703,-0.037473 -0.04022,0.040372 -0.0029,0.070442 0.01284,0.1099092 0.03497,0.087705 0.02212,-0.022205 0.02449,-0.07984 0.0053,-0.128077 z m 0.254104,-0.2879281 c 0.767513,-0.127395 1.095632,-0.2305311 1.691261,-0.5316067 0.539573,-0.272741 1.06755,-0.7556498 1.079214,-0.9870946 0.028168,-0.5589345 -0.209641,-0.7609643 -0.980827,-0.8332479 -0.432005,-0.040492 -0.436568,-0.039182 -0.414208,0.1189471 0.01395,0.098683 0.07358,0.1675425 0.155755,0.1798803 0.39153,0.058782 0.441343,0.086546 0.420408,0.234322 -0.02983,0.2105261 -0.532101,0.5249903 -1.192897,0.7468471 -0.570316,0.191479 -1.707469,0.305398 -2.089022,0.2092764 -0.262975,-0.066249 -0.212066,-0.278254 0.123897,-0.5159477 0.213217,-0.1508512 0.282639,-0.2401994 0.25853,-0.3327361 -0.01813,-0.069579 -0.05671,-0.1265072 -0.08573,-0.1265072 -0.02902,0 -0.242216,0.1277982 -0.47376,0.2839961 -0.969303,0.6538854 -0.950584,1.3047241 0.04447,1.5462051 0.519753,0.1261343 0.742155,0.1272997 1.462907,0.00767 z m -0.03227,-1.0192901 c 8.78e-4,-0.1008055 0.01067,-0.1031104 0.07094,-0.016706 0.05687,0.081526 0.06348,0.07529 0.03543,-0.033411 C 5.1383415,5.549228 5.1022895,5.398877 5.0771945,5.2886197 5.0520985,5.1783623 5.0109745,5.0580816 4.9858075,5.0213291 4.9606405,4.9845767 4.8524285,4.5712495 4.7453365,4.1028242 4.6382435,3.634399 4.5281545,3.2510041 4.5006925,3.2508356 c -0.08183,-5.011e-4 -0.05758,0.1815353 0.0781,0.5864997 0.153521,0.4581839 0.351047,1.2933873 0.314551,1.3300199 -0.01433,0.014382 -0.06101,-0.1178353 -0.103745,-0.2938173 -0.135944,-0.5598665 -0.370598,-1.2879306 -0.415258,-1.2884214 -0.0436,-4.792e-4 0.137368,0.782402 0.308813,1.3359787 0.05122,0.165386 0.125893,0.4285001 0.16594,0.584698 0.07265,0.2833589 0.199915,0.3886895 0.201847,0.1670566 z m -0.60947,-0.2004679 c -0.09695,-0.3729863 -0.128964,-0.4174226 -0.08463,-0.1174485 0.03813,0.2580045 0.07573,0.3680334 0.125766,0.3680334 0.01319,0 -0.0053,-0.1127632 -0.04114,-0.2505849 z m 1.838749,-0.6011695 c 0.06161,-0.2849603 0.16949,-0.7092157 0.239742,-0.9427898 0.135619,-0.4509055 0.160934,-0.6778933 0.0756,-0.6778933 -0.02867,0 -0.09212,0.2170262 -0.140989,0.4822804 -0.04887,0.2652541 -0.160229,0.721606 -0.247455,1.0141153 -0.169609,0.5687811 -0.194318,0.7388011 -0.09875,0.6795178 0.03291,-0.020417 0.110244,-0.2702702 0.171851,-0.5552304 z M 4.1911935,4.4898959 C 4.1179645,4.2807686 4.0381555,3.9764994 4.0138395,3.8137422 3.9895235,3.6509849 3.9430715,3.5178199 3.9106135,3.5178199 c -0.07768,0 -0.07598,0.018309 0.04085,0.4407683 0.251128,0.9080977 0.323971,1.1219989 0.347545,1.0205514 0.01393,-0.059957 -0.03458,-0.2801163 -0.107811,-0.4892437 z M 8.028255,8.4236951 C 7.7336225,8.1433996 7.7555435,8.030633 8.078345,8.1660123 8.424823,8.3113215 8.460098,8.286245 8.313885,7.9985729 8.127168,7.6312081 8.259685,7.5823915 8.583119,7.8993949 8.725604,8.0390475 8.827441,8.1681061 8.809423,8.186191 8.791403,8.204276 8.687102,8.132946 8.577638,8.0276803 8.358906,7.8173381 8.299425,7.9185456 8.485258,8.1848572 8.624547,8.3844638 8.564848,8.4341591 8.312033,8.3290498 8.033021,8.213047 7.991103,8.2875318 8.221133,8.4905681 8.32605,8.5831721 8.381934,8.6596287 8.345318,8.6604713 8.308698,8.6613133 8.166021,8.5547653 8.028248,8.4236953 Z m -5.8367785,0.022294 c -0.0046,-0.1982127 -0.0641,-0.2305702 -0.190626,-0.1035751 -0.160881,0.1614822 -0.074,-0.02856 0.12894,-0.2820323 0.169053,-0.2111508 0.231595,-0.2486009 0.32836,-0.1966203 0.247224,0.1328054 0.199793,0.5994926 -0.05111,0.5028531 -0.0538,-0.020722 -0.116484,0.02639 -0.151548,0.1138985 -0.05717,0.1426696 -0.05998,0.1411501 -0.06402,-0.034524 z M 2.5201245,8.139719 c 0,-0.1863897 -0.0761,-0.2236701 -0.209392,-0.1025861 -0.139724,0.1269209 -0.104757,0.225094 0.08017,0.225094 0.08092,0 0.129219,-0.04579 0.129218,-0.1225079 z M 1.7366715,8.06572 c 0.01416,-0.1823563 -0.01363,-0.2460858 -0.134352,-0.3080731 -0.141234,-0.072521 -0.126834,-0.08321 0.199721,-0.1482547 0.193561,-0.038555 0.364457,-0.057745 0.379768,-0.042645 0.03842,0.037883 -0.103401,0.2881486 -0.299436,0.5284227 l -0.163558,0.2004683 z m 0.274939,-0.3046631 c 0.02289,-0.059882 5.39e-4,-0.100234 -0.05552,-0.100234 -0.109495,0 -0.183705,0.095883 -0.122082,0.1577362 0.07015,0.070418 0.136969,0.048785 0.177604,-0.057502 z M 8.661305,7.6896679 C 8.420598,7.5448619 8.388198,7.5004115 8.445299,7.3933196 c 0.03695,-0.069294 0.09996,-0.1463282 0.140034,-0.1711863 0.05223,-0.0324 0.05301,-0.00797 0.0028,0.086275 -0.101394,0.1901659 0.03916,0.3223464 0.193591,0.1820623 0.102495,-0.093104 0.109235,-0.087376 0.07969,0.067735 -0.03569,0.1873954 0.08996,0.2312691 0.246031,0.085911 0.07338,-0.068341 0.08185,-0.061272 0.0466,0.038877 -0.0237,0.067323 -0.04308,0.1349804 -0.04308,0.1503509 0,0.072509 -0.19252,0.010989 -0.449617,-0.1436767 z M 1.5714495,7.4334766 c 0.119001,-0.055174 0.216365,-0.1318371 0.216365,-0.1703637 0,-0.038527 0.05992,-0.070048 0.133147,-0.070048 0.07323,0 0.133147,0.030815 0.133147,0.068477 0,0.072883 -0.222732,0.1737575 -0.518882,0.2349985 -0.160787,0.03325 -0.156895,0.026474 0.03622,-0.063064 z M 9.110923,7.32671 c 0,-0.036752 0.04494,-0.066823 0.09986,-0.066823 0.110415,0 0.136723,-0.1697135 0.03599,-0.2321993 -0.03513,-0.02179 -0.121032,-0.00378 -0.190903,0.040013 -0.164497,0.1031153 -0.344395,0.032134 -0.344395,-0.1358865 0,-0.1441972 0.115136,-0.248976 0.187507,-0.1706403 0.02503,0.027088 0.0081,0.062675 -0.03772,0.079083 -0.09925,0.03558 -0.112439,0.2191622 -0.01574,0.2191622 0.03711,0 0.123018,-0.034816 0.190902,-0.077369 0.253237,-0.1587398 0.543623,0.1462059 0.30559,0.320911 -0.146221,0.1073192 -0.2311,0.1160416 -0.2311,0.023748 z M 1.2552245,7.1979148 c 0,-0.034085 0.07947,-0.1247165 0.176598,-0.2014035 0.212243,-0.1675751 0.159636,-0.2578197 -0.08506,-0.1459125 -0.09642,0.044098 -0.190581,0.064859 -0.209236,0.046136 -0.01865,-0.018724 0.04513,-0.064955 0.141751,-0.1027357 0.09662,-0.037781 0.250563,-0.098018 0.342101,-0.1338611 0.131863,-0.051632 0.166435,-0.0446 0.166435,0.033853 0,0.054462 -0.0749,0.1643861 -0.166435,0.2442759 -0.205467,0.1793192 -0.208982,0.2372772 -0.01664,0.274462 0.09273,0.017926 0.05468,0.032426 -0.09986,0.038059 -0.137308,0.005 -0.249651,-0.018788 -0.249651,-0.052873 z M 0.66116914,6.0177285 c -0.1722995,-0.1455225 -0.204829,-0.220291 -0.204829,-0.4707958 0,-0.3939921 0.2153552,-0.6258375 0.58132436,-0.6258375 0.320328,0 0.519523,0.1378775 0.613906,0.4249291 0.09111,0.2770969 0.01493,0.5058039 -0.233918,0.7022803 -0.241287,0.190506 -0.50745896,0.1797477 -0.75648336,-0.030576 z M 1.4050155,5.8434026 C 1.5632695,5.6596956 1.5515265,5.3961162 1.3767675,5.2093982 0.99859354,4.8053454 0.39540314,5.3009242 0.66041334,5.7979517 0.80785454,6.0744791 1.1860665,6.0975653 1.4050155,5.8434026 Z M 9.131278,6.0294544 C 8.976175,5.8955417 8.944488,5.8152092 8.944488,5.5559102 c 0,-0.2624613 0.03112,-0.3391435 0.195106,-0.4807234 C 9.301262,4.9356054 9.381109,4.912985 9.605505,4.9431954 10.141821,5.0153994 10.353159,5.5683282 10.00375,5.9851304 9.780002,6.2520337 9.410803,6.2707901 9.131278,6.0294544 Z M 9.879546,5.8930608 C 10.138801,5.6328361 10.074415,5.3160324 9.724215,5.1287762 9.419274,4.9657209 9.110923,5.1977692 9.110923,5.5903055 c 0,0.4451662 0.450108,0.6224609 0.768623,0.3027553 z M 1.3883715,4.6686554 c 0,-0.028585 0.06194,-0.1052002 0.137633,-0.1702571 0.152917,-0.131421 0.14481,-0.2335328 -0.02707,-0.3409894 -0.09423,-0.05891 -0.153312,-0.025368 -0.333429,0.1892859 -0.18554196,0.2211195 -0.24596696,0.2540654 -0.39644796,0.2161558 -0.2786491,-0.070198 -0.3356193,-0.5213607 -0.07835,-0.6204544 0.158558,-0.061072 0.20474,0.032746 0.06618,0.1344434 -0.1517262,0.1113596 -0.091233,0.3096745 0.09446,0.3096745 0.07309,0 0.16839096,-0.067658 0.21177696,-0.1503509 0.09924,-0.1891443 0.186991,-0.2482676 0.370419,-0.2495616 0.318746,-0.00225 0.471232,0.4065969 0.232521,0.623435 -0.127464,0.1157854 -0.277696,0.1474976 -0.277696,0.058619 z m 7.5228295,-0.00533 c 0,-0.057471 0.623497,-0.1431642 1.041659,-0.1431642 0.281294,0 0.291188,0.1032997 0.0152,0.1587037 C 9.6606,4.7405869 8.911202,4.7295679 8.911202,4.6633259 Z M 8.823591,4.4064019 c -0.02397,-0.038934 0.04585,-0.183751 0.155162,-0.3218164 0.109311,-0.138065 0.198748,-0.2622832 0.198748,-0.2760401 0,-0.013757 -0.119832,-0.00578 -0.266295,0.017729 -0.16421,0.026356 -0.266294,0.016657 -0.266294,-0.025301 0,-0.081531 1.04016,-0.3739091 1.162532,-0.3267751 0.119808,0.046146 0.189673,0.4812863 0.103288,0.6433019 C 9.799931,4.3253069 9.52544,4.3645189 9.358006,4.1964592 L 9.217756,4.0556845 9.042467,4.2664379 C 8.938321,4.3916542 8.849487,4.4484608 8.823591,4.4064019 Z m 0.91886,-0.3292042 c 0.05964,-0.059868 0.09174,-0.1525375 0.07133,-0.2059332 -0.02041,-0.053395 -0.03712,-0.1403016 -0.03712,-0.1931246 0,-0.070644 -0.04842,-0.084676 -0.183078,-0.053061 C 9.276728,3.6994659 9.21921,3.8021876 9.379722,4.0070095 9.542938,4.2152812 9.594868,4.2253298 9.742447,4.0771985 Z M 1.2675985,3.5514282 c -0.108659,-0.091773 -0.216319,-0.2418705 -0.239243,-0.3335505 -0.05727,-0.229018 0.103218,-0.5825866 0.316335,-0.6969295 0.262016,-0.140579 0.291309,-0.037184 0.05282,0.1864328 -0.366391,0.3435403 -0.218241,0.8104389 0.257157,0.8104389 0.310042,0 0.466016,-0.1771897 0.466016,-0.5294028 0,-0.1624229 0.02106,-0.2112353 0.06996,-0.1621501 0.180473,0.1811483 0.06009,0.6551695 -0.20077,0.7905714 -0.279879,0.1452722 -0.496002,0.1256998 -0.722278,-0.06541 z M 8.445186,3.3841746 C 8.281015,3.2193904 8.274167,2.9761455 8.428546,2.7930231 8.826815,2.320591 9.494872,2.8613891 9.140439,3.3693062 9.004957,3.5634556 8.631754,3.5714368 8.44519,3.3841742 Z m 0.517776,-0.0372 C 9.125968,3.2323741 9.163453,2.929049 9.031032,2.7961358 8.829694,2.5940445 8.445184,2.7832788 8.445184,3.0844571 c 0,0.1345051 0.210719,0.3665405 0.332868,0.3665405 0.02032,0 0.10353,-0.04681 0.184908,-0.104023 z M 7.961889,2.8328879 C 7.946279,2.7869469 7.990809,2.5451497 8.060839,2.2955599 8.130869,2.0459701 8.178587,1.8149704 8.166884,1.7822273 8.155184,1.7494843 7.997128,1.8599233 7.8156565,2.0276477 7.6052105,2.2221501 7.4754005,2.3015679 7.4572525,2.2469191 7.4198425,2.1342801 8.260054,1.3732617 8.338526,1.4487059 c 0.03514,0.033784 0.01221,0.2539115 -0.05564,0.5341138 -0.06348,0.2621549 -0.09927,0.4928509 -0.07954,0.5126578 0.01973,0.019807 0.164604,-0.087546 0.321937,-0.2385626 0.282148,-0.2708212 0.385919,-0.32992 0.385919,-0.2197849 0,0.058434 -0.828459,0.8792861 -0.887434,0.8792861 -0.01843,0 -0.04627,-0.037588 -0.06188,-0.083528 z M 2.4253765,2.7756299 c -0.246888,-0.7340983 -0.353816,-1.2065824 -0.279535,-1.235193 0.04578,-0.017632 0.320978,0.109535 0.611557,0.2825939 0.631096,0.3758602 0.593823,0.3482785 0.541554,0.4007426 -0.02324,0.023323 -0.13033,0.00578 -0.237986,-0.038975 -0.16537,-0.068755 -0.223162,-0.063345 -0.372494,0.034867 -0.141165,0.092841 -0.172956,0.1605141 -0.157885,0.3360927 0.0198,0.2306243 -0.05149,0.3796011 -0.105211,0.2198718 z m 0.12259,-0.6348228 c 0.146289,-0.056346 0.131465,-0.1781843 -0.03432,-0.2821086 -0.174753,-0.1095432 -0.211583,-0.074661 -0.155975,0.1477276 0.0486,0.194348 0.04366,0.1908621 0.190299,0.134381 z m 0.646143,-0.567308 -0.264272,-0.5615275 0.211229,-0.11413882 c 0.304034,-0.16428601 0.489181,-0.14817331 0.621196,0.054061 0.09304,0.14252192 0.09999,0.20961792 0.03861,0.37281712 -0.06944,0.184664 -0.06074,0.2070679 0.120668,0.3106632 0.19634,0.1121225 0.256193,0.2118809 0.127123,0.2118809 -0.03807,0 -0.186671,-0.06014 -0.330216,-0.1336453 -0.342001,-0.1751281 -0.355412,-0.1707659 -0.229052,0.074501 0.07413,0.1438892 0.08589,0.2295659 0.03811,0.2775313 -0.04779,0.047965 -0.15071,-0.1039638 -0.333398,-0.4921421 z m 0.328998,-0.1295315 c 0.151909,-0.081604 0.177354,-0.4323959 0.03533,-0.48709892 -0.140168,-0.053989 -0.372577,0.024967 -0.372577,0.12657492 0,0.099626 0.139417,0.4296977 0.181497,0.4296977 0.01484,0 0.08492,-0.031128 0.155749,-0.069174 z m 3.342341,0.5385123 c -0.158446,-0.096969 -0.203297,-0.1627963 -0.170564,-0.2503351 0.05793,-0.1549126 0.422801,-0.83819492 0.484634,-0.90754483 0.05182,-0.058125 0.529022,0.15501241 0.531718,0.23748803 0.0024,0.072461 -0.118936,0.061574 -0.280407,-0.025166 -0.114463,-0.061488 -0.156359,-0.053025 -0.228631,0.046183 -0.126424,0.1735413 -0.112884,0.2166407 0.110994,0.3532982 0.244289,0.1491166 0.187891,0.2421059 -0.06669,0.1099632 -0.164247,-0.085253 -0.194365,-0.082704 -0.291141,0.024632 -0.156955,0.1740818 -0.13382,0.2541271 0.09677,0.3348121 0.112593,0.039397 0.18572,0.1024788 0.162505,0.1401822 -0.05859,0.095154 -0.10318,0.087043 -0.349187,-0.063513 z M 6.1561435,1.659376 c -0.0232,-0.037676 0.003,-0.2426599 0.05825,-0.4555207 0.122177,-0.47082333 0.125785,-0.60600523 0.01721,-0.64492583 -0.190088,-0.068142 0.03743,-0.1333694 0.266814,-0.076492 0.224506,0.055668 0.317533,0.1826617 0.149272,0.203773 -0.03661,0.00459 -0.09314,0.012112 -0.125609,0.016706 -0.03247,0.00459 -0.09475,0.19836351 -0.138411,0.43059893 -0.08734,0.4645999 -0.160763,0.634298 -0.227531,0.5258607 z"
       id="path1841" />
    <path
       style="fill:#000000;fill-rule:evenodd;stroke:#ffffff;stroke-width:0.0349501;stroke-linecap:round;stroke-linejoin:round;paint-order:markers stroke fill"
       d="M 4.8190498,10.219317 C 4.1106004,10.16442 3.3765904,9.9224037 2.7220493,9.5278976 2.1360496,9.1747026 1.496186,8.5452006 1.1213373,7.9531068 0.73881754,7.3488963 0.48576387,6.665137 0.38055699,5.9514957 0.33825527,5.6645538 0.32444198,5.1210567 0.35218156,4.8350371 0.45045871,3.8217115 0.83297031,2.8704661 1.4530764,2.0972863 1.6298498,1.8768764 1.9517327,1.5566445 2.1783824,1.3757008 2.7242448,0.93991659 3.4030495,0.60042865 4.0768512,0.42622724 4.664122,0.27439707 5.6272178,0.25032912 6.2994873,0.37068308 7.1264552,0.51873217 8.1551245,1.0805858 8.81913,1.7468985 c 0.2967377,0.2977683 0.6822329,0.791298 0.8045099,1.0299712 0.1335352,0.260649 0.3506285,0.7467241 0.4119191,0.9222921 0.136816,0.3919127 0.200621,0.825595 0.21459,1.4585606 0.0159,0.7205626 -0.03028,1.0811608 -0.207356,1.6189818 -0.5222192,1.5861162 -1.7538594,2.7873847 -3.3558247,3.2730718 -0.2732464,0.08284 -0.563916,0.134383 -0.9155285,0.162335 -0.2418414,0.01922 -0.7478631,0.02305 -0.95239,0.0072 z m 0.20588,-0.5666999 C 5.0096554,9.5186916 4.9019118,9.1212319 4.8684944,9.0755312 4.8550668,9.0571691 4.8310966,9.0471282 4.8152253,9.0532189 4.7773973,9.0677339 4.6622543,9.2425111 4.5449404,9.4634861 4.4175888,9.7033687 4.4154507,9.7788146 4.540133,9.6331525 4.6735401,9.4772963 4.8009052,9.508701 4.9610295,9.736934 c 0.053004,0.075549 0.078325,0.042138 0.063901,-0.084316 z m 0.5028285,0.1142545 c -0.0066,-0.010679 -0.024389,-0.019418 -0.039531,-0.019418 -0.061773,0 -0.088648,-0.089882 -0.1054399,-0.352634 -0.01656,-0.2591115 -0.02907,-0.3269493 -0.060298,-0.3269493 -0.048057,0 -0.065723,0.099013 -0.066135,0.3706669 -5.292e-4,0.341072 0.00271,0.3477499 0.1681356,0.3477499 0.071901,0 0.1107535,-0.00731 0.1032682,-0.019418 z m 0.91259,-0.1746954 c -0.02983,-0.2570165 0.1496171,-0.3397956 0.3237185,-0.1493319 0.090888,0.09943 0.091572,0.089742 0.015994,-0.2265034 -0.068104,-0.2849732 -0.092486,-0.3463296 -0.1344522,-0.3383415 -0.023516,0.00448 -0.033002,0.040836 -0.041345,0.1584738 -0.01252,0.1765445 -0.036161,0.2061482 -0.1646245,0.2061482 -0.091093,0 -0.1185326,-0.023818 -0.1733543,-0.1504791 -0.03349,-0.077376 -0.068653,-0.1088676 -0.068653,-0.061485 0,0.068513 0.1354646,0.5161856 0.1946844,0.6433761 0.038627,0.082962 0.062448,0.042365 0.04803,-0.081857 z M 4.2810807,9.4947976 c 0.087625,-0.2080638 0.155203,-0.4582572 0.1402247,-0.5191553 -0.023468,-0.095414 -0.107089,-0.025477 -0.107089,0.089566 0,0.071318 -0.043921,0.1184566 -0.113033,0.1213128 -0.1857092,0.00767 -0.2170504,-0.026591 -0.2170504,-0.2373003 0,-0.08425 -0.00744,-0.1531824 -0.016528,-0.1531824 -0.023572,0 -0.1552977,0.4541554 -0.1703599,0.5873544 -0.015028,0.1328875 0.010067,0.1462172 0.061315,0.032569 0.019611,-0.043492 0.053465,-0.091548 0.075228,-0.1067917 0.052762,-0.036956 0.1669743,-0.035172 0.2221431,0.00347 0.041382,0.028985 0.044083,0.042683 0.038299,0.1942119 -0.00342,0.089665 -0.00185,0.1629854 0.00348,0.1629341 0.00534,-5.82e-5 0.042854,-0.078796 0.083364,-0.1749875 z M 3.4687511,9.3803654 C 3.4995902,9.368303 3.4929129,9.36326 3.4332988,9.3535869 3.1943166,9.3148053 3.0525015,9.088653 3.1383392,8.8832146 c 0.079606,-0.1905233 0.412931,-0.194649 0.5254186,-0.0065 l 0.038833,0.064952 0.00601,-0.072486 C 3.7161934,8.7775186 3.6732989,8.7169766 3.5543378,8.6514483 3.3947207,8.5635257 3.2630826,8.5881385 3.1270838,8.7313337 2.9852187,8.8807058 2.9565109,9.0069126 3.02776,9.1679838 3.1002971,9.3319657 3.3208824,9.4382001 3.4687503,9.3803656 Z m 3.9375703,-0.073897 c 0.0866,-0.063056 0.1248069,-0.1193366 0.065586,-0.096611 C 7.3981684,9.2381534 7.266795,9.2446804 7.2240831,9.2221714 7.12358,9.1692034 7.1227751,9.0924451 7.2218631,9.0104417 l 0.072813,-0.060259 -0.1092539,0.012695 c -0.095316,0.011076 -0.1145127,0.00743 -0.1504791,-0.02853 -0.022675,-0.022675 -0.041225,-0.054766 -0.041225,-0.071315 0,-0.052438 0.055597,-0.1401273 0.1162071,-0.1832856 0.1317188,-0.093792 0.00873,-0.1012315 -0.1486609,-0.00899 -0.095053,0.055704 -0.1214549,0.1195893 -0.087071,0.2106832 0.037847,0.1002692 0.2030857,0.363787 0.2783592,0.4439206 0.083327,0.088706 0.1085821,0.086826 0.2537701,-0.018889 z M 7.7509671,9.0470581 c 0,-0.011448 -0.023172,-0.060352 -0.051491,-0.1086768 -0.077136,-0.1316215 -0.024691,-0.1464636 0.2213872,-0.062653 0.099483,0.033882 0.1405017,0.019981 0.063168,-0.021405 C 7.9331214,8.8270774 7.878109,8.7167081 7.8382624,8.5618747 7.8013777,8.4185486 7.7516966,8.3549951 7.6636255,8.3384729 7.5541962,8.3179439 7.3626337,8.4263585 7.3626337,8.5088194 c 0,0.078247 0.2543029,0.4965499 0.3280968,0.5396862 0.041459,0.024236 0.060237,0.023783 0.060237,-0.00146 z M 2.5976859,8.9042265 c -0.058196,-0.099304 -0.066044,-0.2140382 -0.018251,-0.2668471 0.044075,-0.048702 0.059535,-0.045692 0.1754942,0.034173 0.1511932,0.1041307 0.1773661,0.055731 0.051612,-0.095441 -0.059222,-0.071193 -0.057704,-0.1172779 0.0055,-0.1669968 0.066366,-0.052204 0.09581,-0.050732 0.1659641,0.0083 0.031729,0.026698 0.070124,0.048541 0.085324,0.048541 0.057125,0 0.023775,-0.058005 -0.093719,-0.1630085 L 2.848259,8.1944949 2.7937675,8.2574125 c -0.02997,0.034605 -0.1287221,0.1581434 -0.2194488,0.2745301 -0.1965489,0.2521382 -0.2000253,0.2759573 -0.056143,0.3846963 0.053396,0.040354 0.1044668,0.073415 0.1134909,0.073469 0.00902,5.82e-5 -0.00627,-0.038592 -0.033979,-0.08588 z M 5.8952047,8.6988042 C 6.0730614,8.6872843 6.2417978,8.6644658 6.33208,8.6397217 6.4948646,8.5951066 6.9091907,8.4019039 7.1199253,8.2723443 7.9539028,7.7596149 8.6096949,6.8393448 8.7343221,6.0068669 8.775332,5.7329343 8.7822577,4.7899008 8.7451171,4.5371848 8.7123476,4.314227 8.6268856,4.0621283 8.4939359,3.7962451 8.2815896,3.3715785 8.0389841,3.0452356 7.674125,2.6934675 7.3046087,2.33721 6.9643535,2.1332951 6.4556706,1.9632485 4.9220307,1.4505708 3.3226773,2.0051721 2.4088088,3.366562 1.9962914,3.9810893 1.8982442,4.3469864 1.8982442,5.2719121 c 0,0.5713537 0.024466,0.8092022 0.1163754,1.1313075 0.1487141,0.5211877 0.6322013,1.2070144 1.1289631,1.6014338 0.4460539,0.3541586 1.0222767,0.6259595 1.4715922,0.6941413 0.1427927,0.021669 0.9455134,0.021675 1.2800298,9.5e-6 z m 2.4576792,-0.060645 c 0,-0.012078 -0.061162,-0.083247 -0.1359164,-0.1581491 C 8.0099035,8.2725355 8.0325179,8.2378922 8.3136915,8.3318368 8.477132,8.3864448 8.5095665,8.3919238 8.536599,8.3694888 8.574069,8.3383918 8.568587,8.3208698 8.469583,8.1552885 8.3130588,7.8935054 8.3583862,7.8487133 8.5867465,8.0395081 8.7372187,8.165228 8.7964444,8.2036167 8.8135465,8.1865145 8.8405973,8.1594638 8.5678875,7.8629111 8.413075,7.7510299 8.321548,7.6848844 8.2473601,7.6715113 8.2295413,7.7179464 c -0.013899,0.036218 0.024021,0.1574988 0.1016944,0.3252693 0.1027179,0.2218634 0.07736,0.2444141 -0.169314,0.1505677 -0.2189102,-0.083283 -0.2856743,-0.097817 -0.3228015,-0.070272 -0.026701,0.019809 -0.026665,0.02803 3.44e-4,0.080319 0.03974,0.076914 0.2230234,0.2629384 0.364857,0.3703137 0.1168434,0.088456 0.1485553,0.1021215 0.1485553,0.064015 z M 2.251985,8.4999339 C 2.301886,8.3873825 2.337861,8.361312 2.4239848,8.3752879 c 0.038788,0.00629 0.08751,0.00235 0.1082715,-0.00876 0.047286,-0.025307 0.092844,-0.1316807 0.092283,-0.2154732 C 2.6235293,8.002316 2.4975851,7.8446183 2.3797772,7.8446183 c -0.067105,0 -0.2231969,0.1569148 -0.3615825,0.363488 C 1.901111,8.382884 1.8948909,8.440297 2.0036878,8.3420051 2.130124,8.2277776 2.1670768,8.249656 2.1884421,8.4513916 c 0.00763,0.072084 0.016822,0.1310624 0.020418,0.1310624 0.0036,0 0.023003,-0.037134 0.043124,-0.082521 z M 1.9552331,8.0017906 C 2.0944182,7.817588 2.2089712,7.606573 2.1881085,7.5728164 2.1717837,7.546403 2.0719636,7.5564545 1.7681311,7.6151172 1.5185732,7.6632996 1.4904483,7.6776546 1.5549423,7.7239289 c 0.02554,0.018325 0.076914,0.061974 0.1141653,0.096999 l 0.06773,0.063682 -0.00921,0.2070857 -0.00921,0.2070862 0.056748,-0.066893 C 1.8063767,8.1950981 1.8874072,8.0915537 1.9552331,8.0017906 Z M 9.1367004,7.7511183 C 9.1818595,7.5901736 9.1784583,7.584771 9.0795218,7.6602911 8.9219604,7.7805606 8.8425396,7.7361214 8.8668799,7.5413085 c 0.00718,-0.057441 0.00587,-0.1042784 -0.00291,-0.1040842 -0.00878,1.942e-4 -0.054583,0.026523 -0.1017879,0.058509 -0.085555,0.05797 -0.14757,0.061856 -0.1808538,0.011335 -0.024828,-0.037689 -0.016047,-0.1440561 0.017746,-0.2149181 0.04321,-0.090612 0.019656,-0.1084077 -0.052273,-0.039495 -0.085862,0.082261 -0.1436016,0.2107734 -0.117017,0.2604471 0.047256,0.088298 0.5137819,0.3509367 0.6233707,0.3509367 0.046631,0 0.055062,-0.011396 0.083548,-0.1129194 z M 1.6272135,7.4764945 C 1.9913371,7.3891937 2.1684717,7.2445796 1.9717561,7.195207 1.9113773,7.1800517 1.790049,7.2169954 1.790049,7.2505338 c 0,0.039921 -0.083933,0.1065699 -0.2355417,0.1870384 -0.1623115,0.086149 -0.1505452,0.092448 0.072706,0.038922 z m 7.68347,-0.1495901 C 9.4110617,7.2621728 9.450409,7.1687648 9.4140023,7.0816314 9.3827817,7.0069102 9.3084716,6.9528405 9.2164847,6.9379129 c -0.048197,-0.00782 -0.099131,0.00526 -0.1947783,0.050017 -0.1530308,0.071612 -0.2144239,0.076986 -0.2324015,0.020344 -0.017907,-0.056419 0.023299,-0.1448072 0.079433,-0.1703834 0.025977,-0.011835 0.047096,-0.02826 0.046932,-0.036498 -7.408e-4,-0.03797 -0.037216,-0.066328 -0.077617,-0.060365 -0.065321,0.00964 -0.125078,0.1012963 -0.125078,0.1918441 0,0.1637998 0.1734523,0.2325471 0.34833,0.1380593 0.09849,-0.053215 0.1956994,-0.055069 0.2228961,-0.00425 0.046648,0.087162 -8.995e-4,0.1954432 -0.085818,0.1954432 -0.050192,0 -0.088249,0.03447 -0.088249,0.079932 0,0.068699 0.079886,0.062665 0.2005494,-0.015147 z M 1.586174,7.2446674 1.663841,7.2294514 1.605591,7.2143514 C 1.533907,7.1957674 1.4599659,7.1510494 1.4599659,7.1262784 c 0,-0.010147 0.069572,-0.092308 0.1546048,-0.1825818 0.1496901,-0.1589172 0.1918412,-0.2322631 0.1684737,-0.2931575 -0.016827,-0.043851 -0.04689,-0.037484 -0.3131185,0.066318 -0.2731103,0.106485 -0.353862,0.1508789 -0.3256894,0.1790515 0.011729,0.011729 0.084064,-0.00328 0.1975493,-0.040979 0.2732072,-0.090769 0.2848708,-0.055108 0.05625,0.1719832 -0.172806,0.1716497 -0.1763298,0.1902544 -0.040995,0.2164551 0.098647,0.019098 0.1371676,0.019317 0.2291332,0.0013 z M 1.2981364,6.1245266 C 1.4410249,6.0560395 1.6243034,5.8552834 1.6630476,5.7248171 1.702905,5.5906032 1.700765,5.5051291 1.6537369,5.3528658 1.6045033,5.193465 1.4927576,5.0485416 1.3752042,4.991635 1.1214815,4.8688101 0.7995672,4.9040529 0.62477445,5.0737913 0.48469596,5.2098197 0.41858134,5.4920113 0.46944887,5.7367556 0.49033375,5.8372407 0.50764049,5.8663179 0.60380093,5.962478 0.82998343,6.1886605 1.0548417,6.2411393 1.2981377,6.1245266 Z M 9.7570211,6.163292 C 9.9625388,6.0932653 10.150732,5.8365469 10.172496,5.5965347 10.204438,5.2442684 9.9289825,4.961985 9.5289405,4.9370271 9.3456644,4.9255918 9.2803094,4.9499255 9.1238848,5.0878258 8.9736666,5.2202567 8.9470733,5.2902239 8.9469061,5.5534539 c -1.165e-4,0.1767192 0.00724,0.2385055 0.035276,0.2962344 0.049919,0.1028096 0.2261651,0.257103 0.3465254,0.3033641 0.1248822,0.047999 0.3048685,0.052302 0.4283136,0.01024 z M 1.6014952,4.6589648 C 1.8105698,4.5204798 1.8453429,4.2791697 1.68224,4.0986342 1.6017169,4.0095048 1.482955,3.969935 1.3540077,3.9892718 1.2473248,4.0052712 1.1668131,4.0690702 1.0778927,4.2080751 0.97225122,4.3732193 0.86008958,4.4214637 0.74640288,4.3506591 0.69204741,4.3168064 0.68329869,4.3004438 0.68329869,4.2326367 c 0,-0.066209 0.0123455,-0.090821 0.0776669,-0.1548498 C 0.88145204,3.9596859 0.85365967,3.894352 0.70223307,3.9397207 0.5986397,3.9707581 0.5417437,4.0557791 0.53170646,4.1945425 0.51867838,4.3746436 0.6133336,4.5154487 0.78125221,4.5657582 0.90325529,4.6023114 0.94954335,4.5763336 1.1688351,4.3482286 1.4062478,4.1012758 1.431705,4.0922381 1.5562314,4.2106971 c 0.04423,0.042075 0.078484,0.092886 0.078484,0.1164194 0,0.024347 -0.052628,0.099106 -0.1262084,0.1792861 -0.1202132,0.1309942 -0.1424151,0.1700387 -0.1132639,0.1991897 0.029884,0.029884 0.1222732,0.009 0.2062521,-0.046628 z m 8.246904,0.038951 c 0.1662658,-0.020847 0.3296518,-0.077113 0.3296518,-0.1135208 0,-0.053783 -0.08893,-0.065298 -0.4163751,-0.053916 -0.4223081,0.014679 -0.8457084,0.079857 -0.8457084,0.1301859 0,0.010065 0.019659,0.022492 0.043687,0.027621 0.024027,0.00513 0.061162,0.013017 0.082521,0.017534 0.081903,0.01732 0.6494323,0.011755 0.8062233,-0.0079 z M 8.9614333,4.3503823 C 9.0073208,4.308085 9.0831842,4.2254561 9.1300189,4.1667625 l 0.085154,-0.1067151 0.1094206,0.1043693 c 0.1976503,0.1885268 0.4114305,0.1875148 0.5563494,-0.00265 0.051659,-0.067782 0.0544,-0.081722 0.0544,-0.2767079 0,-0.1801857 -0.00595,-0.2172192 -0.048542,-0.3024137 C 9.8390086,3.4870643 9.8367416,3.4854771 9.7399274,3.4798222 9.5254342,3.4672942 8.6761235,3.7168515 8.6490196,3.8003707 8.635682,3.84147 8.733971,3.8494734 8.9449598,3.824469 9.0575683,3.811123 9.1551969,3.805699 9.1619126,3.812414 c 0.00672,0.00672 -0.04949,0.093197 -0.1249,0.1921809 -0.1518071,0.1992636 -0.2301325,0.3439748 -0.2118974,0.3914945 0.018179,0.047375 0.045129,0.038336 0.1363181,-0.045719 z M 1.9259657,3.6481869 C 2.1347852,3.5509356 2.2552605,3.3654547 2.2712292,3.1166281 2.2785979,3.0017997 2.2730019,2.964639 2.237924,2.8959013 2.2093572,2.8399059 2.185128,2.8152804 2.1627993,2.8195476 2.135758,2.8247149 2.1275618,2.8582024 2.117147,3.0060706 2.1002824,3.2455185 2.0399834,3.3751922 1.9099626,3.451625 1.8296711,3.4988243 1.8000917,3.504892 1.6541322,3.5041027 1.523065,3.5033883 1.4723349,3.4944375 1.4076945,3.4605946 1.2068874,3.3554587 1.1427657,3.1125159 1.2573435,2.890947 1.2734407,2.8598206 1.3474582,2.7676017 1.4218291,2.6860158 1.6004335,2.4900855 1.6046626,2.4196881 1.4343413,2.477722 1.1885309,2.5614783 0.97297697,2.9340336 1.0212989,3.1916102 c 0.030779,0.1640658 0.2644172,0.4172509 0.4500084,0.4876567 0.1159623,0.043992 0.3239979,0.029771 0.4546584,-0.03108 z M 9.0069988,3.4769292 C 9.1589844,3.4079267 9.2655864,3.1884058 9.2376326,3.0019958 9.2115024,2.8277565 9.0634556,2.6697648 8.8817006,2.6221581 8.6800179,2.5693314 8.4531647,2.6943666 8.354409,2.9127865 8.278787,3.0800426 8.310914,3.2416704 8.446727,3.3772189 c 0.049838,0.049742 0.1211969,0.1001329 0.1585738,0.1119798 0.1119605,0.035487 0.3098204,0.029444 0.401698,-0.01227 z M 8.4911303,2.4889613 C 8.7247907,2.2558574 8.9159675,2.0502519 8.9159675,2.0320601 c 0,-0.053758 -0.052334,-0.058093 -0.120665,-0.01 -0.035086,0.0247 -0.1569961,0.1285011 -0.2709109,0.2306725 C 8.3171705,2.4385923 8.2274331,2.5025579 8.2051596,2.4802842 8.1917902,2.4669158 8.2292923,2.2423783 8.3042728,1.8868543 8.3548934,1.6468325 8.3623343,1.4561848 8.3216057,1.4427818 8.2740132,1.4271203 7.9793587,1.6544466 7.737966,1.8930607 7.5058188,2.1225359 7.4285782,2.2279519 7.4655174,2.2648915 7.4872159,2.28659 7.61038,2.2092846 7.7509679,2.085725 7.9200735,1.9371021 8.1165221,1.7866195 8.1414374,1.7866195 c 0.033454,0 0.016301,0.1102188 -0.071014,0.4562918 -0.1262658,0.5004561 -0.1346639,0.6698752 -0.033207,0.6698752 0.015991,0 0.2202537,-0.1907215 0.4539139,-0.4238252 z M 2.5156444,2.7914324 C 2.5220844,2.767403 2.5274713,2.6753798 2.5276168,2.5869336 2.5279608,2.3755696 2.5562805,2.3113485 2.6865835,2.2263893 2.831554,2.1318671 2.8802977,2.1262165 3.050711,2.1841778 3.2822368,2.2629247 3.3922995,2.2390556 3.2696818,2.13669 3.1741296,2.0569194 2.508266,1.6741502 2.3339373,1.5987805 2.1306029,1.5108706 2.1111547,1.5180399 2.126023,1.6754255 c 0.017261,0.1827233 0.2399146,0.9975209 0.3076146,1.1257153 0.025064,0.047461 0.06805,0.042372 0.082007,-0.00971 z M 7.1883288,2.0774247 c 0.030032,-0.030032 0.034748,-0.047743 0.020033,-0.075239 C 7.1904907,1.9687934 7.0768964,1.9055043 6.9822255,1.8761938 6.9095247,1.8536854 6.851573,1.7752414 6.8657919,1.7185885 c 0.017592,-0.070093 0.1627402,-0.223219 0.2115884,-0.223219 0.021937,0 0.1072097,0.027527 0.1894959,0.061171 0.2407576,0.098437 0.2809962,0.038002 0.069053,-0.1037106 C 7.1021673,1.2965284 7.0828659,1.2491936 7.1935636,1.1036913 7.2722242,1.0002992 7.3183231,0.99249332 7.4656018,1.0576271 c 0.061447,0.027175 0.1379601,0.049409 0.1700284,0.049409 0.064914,0 0.093916,-0.042999 0.058105,-0.086149 C 7.6541849,0.97323258 7.3562268,0.83624294 7.2648984,0.82372498 L 7.1772354,0.81170945 7.0577628,1.0224769 C 6.8659594,1.3608465 6.6830503,1.7325401 6.6830503,1.7839384 c 0,0.067053 0.1241235,0.178548 0.2926051,0.262836 0.076879,0.038461 0.1473428,0.069929 0.156587,0.069929 0.00924,0 0.034483,-0.017675 0.056086,-0.039279 z M 3.5336661,2.0545696 c 0.038635,-0.038635 0.026789,-0.1097095 -0.044658,-0.26795 -0.071497,-0.1583492 -0.08043,-0.1941668 -0.048428,-0.1941668 0.010742,0 0.1410999,0.056794 0.2896849,0.1262084 0.1485847,0.069415 0.2921865,0.1262084 0.3191153,0.1262084 0.1222264,0 0.064034,-0.088898 -0.1477677,-0.2257366 C 3.7500739,1.5212287 3.7471108,1.5106063 3.8118692,1.2974034 3.846473,1.1834783 3.8496548,1.1495712 3.8314457,1.0887931 3.7962265,0.97124199 3.7001827,0.85566453 3.6014103,0.81197285 3.5242504,0.77784131 3.4991975,0.77539449 3.410098,0.79328824 3.30916,0.81355955 2.9692469,0.97127297 2.9462305,1.0085143 c -0.021669,0.035063 0.3795393,0.8633565 0.4874091,1.0062512 0.052287,0.069264 0.065364,0.074468 0.1000265,0.039804 z M 6.246686,1.6429399 C 6.2743426,1.6007305 6.3305554,1.3909973 6.4215433,0.99053604 6.4397413,0.91044227 6.4672236,0.81322337 6.4826152,0.77449406 6.5079279,0.71079814 6.5190205,0.703128 6.5988263,0.69413275 6.7804654,0.67365929 6.7686002,0.57875099 6.575363,0.50645153 6.3990862,0.44049792 6.0761086,0.46032733 6.1853738,0.530395 c 0.1117661,0.0716712 0.117888,0.0823881 0.1146104,0.20063553 -0.00175,0.0626357 -0.033511,0.24494504 -0.070611,0.40513177 -0.085415,0.3687934 -0.1012418,0.4872941 -0.070096,0.5248229 0.033013,0.039779 0.052104,0.035838 0.087409,-0.018045 z"
       id="path2151" />
    <path
       style="fill:#000000;fill-rule:evenodd;stroke:#ffffff;stroke-width:0.0349501;stroke-linecap:round;stroke-linejoin:round;paint-order:markers stroke fill"
       d="M 9.4693425,6.0487444 C 9.458664,6.0451831 9.426058,6.0370075 9.3968861,6.0305807 9.3244302,6.0146158 9.2136241,5.9135129 9.1632635,5.8174178 9.1304324,5.7547714 9.1217835,5.7049749 9.1224751,5.5825795 9.1234541,5.4075449 9.1526395,5.323019 9.2505604,5.2114931 9.417798,5.0210199 9.7056782,5.0518758 9.9130279,5.2824988 10.094149,5.4839494 10.070488,5.7089106 9.847048,5.9098024 9.7299476,6.0150857 9.5580269,6.0783285 9.4693425,6.0487449 Z"
       id="path2190" />
    <path
       style="fill:#000000;fill-rule:evenodd;stroke:#ffffff;stroke-width:0.0349501;stroke-linecap:round;stroke-linejoin:round;paint-order:markers stroke fill"
       d="M 9.4509339,4.0874955 C 9.4042288,4.0394395 9.3472058,3.9612652 9.3242159,3.9137746 9.2797508,3.8219218 9.289274,3.7699743 9.3608684,3.7138401 9.409353,3.6758255 9.6451015,3.6082567 9.7050043,3.615206 c 0.049383,0.00573 0.056355,0.016661 0.078322,0.1227892 0.043781,0.2115203 0.03667,0.2522847 -0.061056,0.3500109 -0.1137932,0.1137934 -0.160331,0.1137058 -0.2713364,-5.027e-4 z"
       id="path2229" />
    <path
       style="fill:#000000;fill-rule:evenodd;stroke:#ffffff;stroke-width:0.0349501;stroke-linecap:round;stroke-linejoin:round;paint-order:markers stroke fill"
       d="M 8.7218007,3.4339336 C 8.6542391,3.4083511 8.5316092,3.2860694 8.4871555,3.199956 8.4400636,3.1087319 8.4399885,3.0277813 8.4869113,2.9362839 8.6095554,2.6971317 8.9313216,2.6432845 9.0604165,2.8403084 9.1364914,2.9564134 9.1137404,3.1737662 9.0135707,3.2878529 8.929696,3.383381 8.7826813,3.456987 8.7218007,3.4339336 Z"
       id="path2268" />
    <path
       style="fill:#000000;fill-rule:evenodd;stroke:#ffffff;stroke-width:0.0349501;stroke-linecap:round;stroke-linejoin:round;paint-order:markers stroke fill"
       d="M 3.3237132,1.4519848 C 3.2652992,1.3567304 3.203079,1.1835353 3.200258,1.1083376 3.196608,1.0110426 3.288698,0.9517027 3.4433376,0.9517027 c 0.1352278,0 0.1805345,0.0341786 0.2002872,0.151093 0.027271,0.1614158 -0.060413,0.3227419 -0.2081141,0.3828991 l -0.072914,0.029697 z"
       id="path2307" />
    <path
       style="fill:#000000;fill-rule:evenodd;stroke:#ffffff;stroke-width:0.0349501;stroke-linecap:round;stroke-linejoin:round;paint-order:markers stroke fill"
       d="M 0.88717392,5.9916817 C 0.7899824,5.9561603 0.65933803,5.8155779 0.62880114,5.7136549 0.59511016,5.601204 0.60095136,5.4394269 0.64196152,5.3491479 0.71760457,5.1826316 0.88762979,5.0692262 1.0627824,5.0684636 1.3351588,5.067273 1.5669391,5.3815909 1.4973841,5.657819 1.4702129,5.7657243 1.3515965,5.9075275 1.2415394,5.9636745 c -0.1020469,0.05206 -0.25539253,0.06418 -0.35436548,0.028007 z"
       id="path2346" />
    <path
       style="fill:#000000;fill-rule:evenodd;stroke:#ffffff;stroke-width:0.0123567;stroke-linecap:round;stroke-linejoin:round;paint-order:markers stroke fill"
       d="m 1.8583234,7.8364189 c -0.033316,-0.024133 -0.042585,-0.03941 -0.04255,-0.070129 6.14e-5,-0.05449 0.062409,-0.1015029 0.1347941,-0.1016405 0.06827,-1.296e-4 0.086419,0.045903 0.047994,0.1217327 -0.036203,0.071443 -0.086107,0.089249 -0.1402381,0.050037 z"
       id="path2385" />
    <path
       style="fill:#000000;fill-rule:evenodd;stroke:#ffffff;stroke-width:0.0123567;stroke-linecap:round;stroke-linejoin:round;paint-order:markers stroke fill"
       d="M 2.3191209,8.2550562 C 2.2357025,8.2373899 2.2078451,8.1902348 2.2416644,8.1239435 2.2712684,8.0659151 2.3611333,7.9874632 2.4144431,7.9731082 c 0.065011,-0.017505 0.095278,0.024204 0.099917,0.1376887 0.00274,0.066969 0.0018,0.073758 -0.013195,0.095736 -0.024006,0.03518 -0.054387,0.049992 -0.10761,0.052464 -0.02518,0.00116 -0.058675,-6.085e-4 -0.074433,-0.00394 z"
       id="path2424" />
    <path
       style="fill:#000000;fill-rule:evenodd;stroke:#ffffff;stroke-width:0.0123567;stroke-linecap:round;stroke-linejoin:round;paint-order:markers stroke fill"
       d="m 4.7523005,9.4496579 c -0.023961,-0.018849 -0.035298,-0.055729 -0.030732,-0.099975 0.00938,-0.090875 0.082206,-0.1555305 0.1114623,-0.098955 0.034892,0.067473 0.00529,0.2050701 -0.045409,0.211051 -0.00976,0.00116 -0.025175,-0.00414 -0.035321,-0.012121 z"
       id="path2463" />
    <path
       style="fill:#000000;fill-rule:evenodd;stroke:#ffffff;stroke-width:0.0123567;stroke-linecap:round;stroke-linejoin:round;paint-order:markers stroke fill"
       d="M 7.5509503,8.692591 C 7.4662136,8.6349637 7.4458446,8.4949055 7.5138753,8.4376613 c 0.064562,-0.054325 0.1752608,-0.034215 0.2284804,0.041507 0.038335,0.054544 0.029942,0.1252705 -0.02164,0.182366 -0.052408,0.058009 -0.1136576,0.069214 -0.1697654,0.031057 z"
       id="path2502" />
    <path
       style="fill:#000000;fill-rule:evenodd;stroke:#ffffff;stroke-width:0.0123567;stroke-linecap:round;stroke-linejoin:round;paint-order:markers stroke fill"
       d="m 2.4110972,2.1606927 c -0.015571,-0.017204 -0.023577,-0.041008 -0.050096,-0.148937 -0.023977,-0.097576 -0.030104,-0.1708916 -0.01642,-0.1964594 0.029105,-0.054383 0.2527221,0.074739 0.2919249,0.1685644 0.021077,0.050444 0.0049,0.098774 -0.044122,0.1318086 -0.031086,0.020949 -0.1264177,0.057049 -0.1506514,0.057049 -0.010864,0 -0.024649,-0.00541 -0.030636,-0.012026 z"
       id="path2541" />
    <path
       style="fill:#000000;fill-rule:evenodd;stroke:#ffffff;stroke-width:0.0349501;stroke-linecap:round;stroke-linejoin:round;paint-order:markers stroke fill"
       d="M 3.938667,6.7462398 C 2.9330506,6.5898199 2.6125031,6.151368 3.0803917,5.5722713 3.2341284,5.3819944 3.4898271,5.182222 3.8753692,4.9511709 L 4.0481474,4.847627 4.0843444,4.892329 c 0.089101,0.1100352 0.055456,0.2067087 -0.1204024,0.3459485 -0.2452889,0.194214 -0.3259479,0.2759507 -0.3598101,0.3646173 -0.032817,0.085931 -0.032669,0.090051 0.00506,0.1408936 0.072065,0.097121 0.148086,0.1105066 0.6176532,0.1087551 C 5.0471236,5.8494822 5.7417914,5.7068752 6.3489617,5.416894 6.7306959,5.2345799 6.9907226,5.0378831 7.0237006,4.9064891 7.0620657,4.7536293 6.9995071,4.70111 6.7227465,4.6538345 6.5908875,4.6313106 6.5501707,4.6160282 6.5159135,4.5762018 6.4720528,4.5252108 6.4372011,4.3861193 6.4593184,4.3503328 6.4773339,4.3211818 6.7430792,4.3256075 7.000432,4.3593419 7.3712961,4.4079578 7.5857192,4.490149 7.7095125,4.6311415 7.800731,4.7350336 7.8317029,4.8258883 7.8429734,5.0226452 7.8557421,5.2455643 7.8263178,5.3148743 7.6293996,5.5257335 7.1885627,5.9977777 6.3909204,6.4151833 5.595717,6.5899586 5.0957193,6.6998514 4.5331088,6.7780564 4.2657939,6.7748224 4.1802951,6.7737906 4.0330881,6.7609265 3.9386673,6.7462387 Z"
       id="path2580" />
    <path
       style="fill:#000000;fill-rule:evenodd;stroke:#ffffff;stroke-width:0.0123567;stroke-linecap:round;stroke-linejoin:round;paint-order:markers stroke fill"
       d="M 4.9608485,5.7596926 C 4.9121808,5.7042629 4.8859963,5.6348188 4.8119757,5.3648647 4.7803998,5.2497072 4.7249108,5.0566338 4.6886666,4.9358129 4.4994718,4.3051238 4.3324927,3.5868737 4.3750652,3.5868737 c 0.04058,0 0.2427957,0.6232302 0.4021577,1.239453 0.064151,0.2480586 0.094884,0.3394578 0.114145,0.3394578 0.047796,0 -0.1440265,-0.8122573 -0.3193754,-1.3523714 C 4.4825202,3.5378186 4.4454486,3.3696899 4.4585574,3.2989578 c 0.00541,-0.029183 0.020754,-0.048461 0.038578,-0.048461 0.028198,0 0.1278528,0.3418356 0.2394347,0.8213038 0.1319062,0.5667999 0.2147684,0.878236 0.257319,0.9671267 0.03358,0.07015 0.060833,0.1586331 0.099334,0.3225049 0.016854,0.071738 0.04162,0.1750626 0.055035,0.2296112 0.034544,0.1404617 0.033223,0.1441003 -0.024035,0.066208 -0.04711,-0.064087 -0.059175,-0.072619 -0.068395,-0.048371 -0.00371,0.00976 -0.00698,0.039937 -0.00727,0.067065 -2.91e-4,0.027128 -0.00423,0.06168 -0.00876,0.076783 -0.00741,0.024691 -0.010708,0.027668 -0.032775,0.029529 -0.020831,0.00175 -0.027809,-0.00164 -0.046169,-0.022564 z"
       id="path2619" />
    <path
       style="fill:#000000;fill-rule:evenodd;stroke:#ffffff;stroke-width:0.0123567;stroke-linecap:round;stroke-linejoin:round;paint-order:markers stroke fill"
       d="M 4.2704426,4.9855829 C 4.2293034,4.9226396 4.1547205,4.6851692 3.9885389,4.0880064 3.8805206,3.6998494 3.860316,3.6162675 3.8628435,3.5680282 c 0.00188,-0.036013 0.00364,-0.039787 0.021296,-0.045971 0.01292,-0.00452 0.023069,-0.00438 0.030892,4.498e-4 0.033289,0.020521 0.070827,0.1323282 0.09755,0.2905604 0.031645,0.1873731 0.086387,0.3976148 0.169006,0.6490771 0.083597,0.2544403 0.1281624,0.4513599 0.1163712,0.5142117 -0.00534,0.028451 -0.013224,0.031097 -0.027516,0.00923 z"
       id="path2658" />
    <path
       style="fill:#000000;fill-rule:evenodd;stroke:#ffffff;stroke-width:0.0123567;stroke-linecap:round;stroke-linejoin:round;paint-order:markers stroke fill"
       d="m 6.0629993,5.4283644 c -0.02598,-0.046309 0.00212,-0.1824262 0.129532,-0.627611 C 6.313593,4.3777791 6.3757537,4.1264223 6.450099,3.7592349 6.4974618,3.525313 6.5164321,3.4464955 6.5496384,3.3456763 c 0.026331,-0.079947 0.041204,-0.1008488 0.063332,-0.089006 0.045178,0.024178 0.036736,0.1760474 -0.023008,0.4139433 -0.01356,0.053998 -0.047412,0.1769526 -0.075225,0.2732318 -0.084406,0.2921915 -0.1368952,0.4993733 -0.2504445,0.9885355 -0.060321,0.2598568 -0.1205106,0.4529214 -0.1516097,0.4863023 -0.01334,0.014319 -0.043757,0.020246 -0.049684,0.00968 z"
       id="path2734" />
    <path
       style="fill:#000000;fill-rule:evenodd;stroke:#ffffff;stroke-width:0.0123567;stroke-linecap:round;stroke-linejoin:round;paint-order:markers stroke fill"
       d="m 4.4492319,5.7009662 c -0.031898,-0.037909 -0.06563,-0.1694555 -0.092754,-0.3617187 -0.017036,-0.1207569 -0.020513,-0.163689 -0.0141,-0.1740657 0.013155,-0.021286 0.1269254,0.3957889 0.1410774,0.5171813 0.00385,0.033044 0.00287,0.039473 -0.00603,0.039473 -0.00585,0 -0.018534,-0.00939 -0.028193,-0.02087 z"
       id="path2773" />
    <path
       style="fill:#000000;fill-rule:evenodd;stroke:#ffffff;stroke-width:0.0123567;stroke-linecap:round;stroke-linejoin:round;paint-order:markers stroke fill"
       d="M 5.516872,7.2784362 C 5.5089821,7.2586136 5.4819396,7.1698001 5.4567751,7.0810721 5.4041806,6.8956296 5.39566,6.834391 5.4185676,6.806479 c 0.017679,-0.021542 0.031996,-0.014666 0.054947,0.026392 0.03433,0.061414 0.05666,0.1469679 0.073672,0.2822634 0.021159,0.1682686 0.00542,0.2530771 -0.030314,0.1633008 z"
       id="path2812" />
    <path
       style="fill:#000000;fill-rule:evenodd;stroke:#ffffff;stroke-width:0.0123567;stroke-linecap:round;stroke-linejoin:round;paint-order:markers stroke fill"
       d="M 4.9655658,7.5827824 C 4.9063748,7.5362229 4.8400077,7.2528841 4.879129,7.2137604 c 0.00887,-0.00887 0.013962,-0.00997 0.019698,-0.00423 0.01012,0.01012 0.019148,0.057963 0.019524,0.1034508 3.968e-4,0.049512 0.01533,0.083874 0.036421,0.083874 0.045537,0 0.099724,-0.1135267 0.129255,-0.2707998 0.026424,-0.1407289 0.057691,-0.2440625 0.073848,-0.2440625 0.03605,0 -0.022122,0.343698 -0.09433,0.5573133 -0.022998,0.068036 -0.053163,0.1316535 -0.069387,0.1463366 -0.010464,0.00947 -0.013274,0.00919 -0.028592,-0.00286 z"
       id="path2851" />
    <path
       style="fill:#000000;fill-rule:evenodd;stroke:#ffffff;stroke-width:0.0123567;stroke-linecap:round;stroke-linejoin:round;paint-order:markers stroke fill"
       d="m 4.8031005,7.1064872 c -0.018344,-0.022101 -0.015925,-0.1474896 0.00296,-0.1537862 0.013213,-0.00441 0.033412,0.053149 0.033412,0.095211 0,0.031142 -0.00311,0.042978 -0.014179,0.054053 -0.011988,0.011988 -0.01542,0.012687 -0.022196,0.00452 z"
       id="path2890" />
  </g>
</svg>
