<?xml version="1.0" encoding="UTF-8" standalone="no"?>
<!-- Created with Inkscape (http://www.inkscape.org/) -->

<svg
   width="250"
   height="192"
   viewBox="0 0 66.145832 50.800001"
   version="1.1"
   id="svg6546"
   inkscape:version="1.1.2 (b8e25be833, 2022-02-05)"
   sodipodi:docname="making-off.svg"
   xmlns:inkscape="http://www.inkscape.org/namespaces/inkscape"
   xmlns:sodipodi="http://sodipodi.sourceforge.net/DTD/sodipodi-0.dtd"
   xmlns="http://www.w3.org/2000/svg"
   xmlns:svg="http://www.w3.org/2000/svg">
  <sodipodi:namedview
     id="namedview6548"
     pagecolor="#ffffff"
     bordercolor="#666666"
     borderopacity="1.0"
     inkscape:pageshadow="2"
     inkscape:pageopacity="0.0"
     inkscape:pagecheckerboard="0"
     inkscape:document-units="px"
     showgrid="false"
     units="px"
     inkscape:zoom="2"
     inkscape:cx="117.5"
     inkscape:cy="89.5"
     inkscape:window-width="1366"
     inkscape:window-height="705"
     inkscape:window-x="-8"
     inkscape:window-y="-8"
     inkscape:window-maximized="1"
     inkscape:current-layer="g12950" />
  <defs
     id="defs6543">
    <clipPath
       clipPathUnits="userSpaceOnUse"
       id="clipPath7947">
      <path
         id="path7949"
         style="fill:#ff0000;fill-opacity:1;fill-rule:nonzero;stroke:none"
         d="m 92.724609,11.630859 v 92.941411 c 1.345146,0.18833 2.689128,0.38132 4.03125,0.58984 1.063178,0.13836 2.123882,0.2955 3.189453,0.41406 0.573798,0.0638 1.150868,0.0893 1.726568,0.13281 0.71435,0.054 1.43004,0.10766 2.14453,0.16016 0.89031,0.0654 1.02443,0.0507 1.97851,0.19922 0.0481,0.007 0.0897,0.0381 0.13477,0.0566 0.094,0.0367 0.18306,0.0918 0.28125,0.11523 0.7591,0.18021 1.55351,0.13869 2.32226,0.25782 0.46372,0.0718 0.68121,0.0747 1.07813,0.21484 0.18195,0.0643 0.36155,0.1328 0.53711,0.21289 0.004,0.002 -0.0104,0.002 -0.0137,0.002 h 0.76367 c 0.6578,0 1.01468,0.29978 1.07812,0.62891 0.48627,0.23111 1.00048,0.41165 1.50782,0.58594 1.37701,0.47305 0.917,1.85333 -0.46485,1.39453 -0.8069,-0.2679 -1.60987,-0.57115 -2.33789,-1.01563 -0.0932,-0.0569 -0.1066,-0.0816 -0.15234,-0.12304 h -0.1836 c -0.005,0.20494 -0.26424,0.12381 -0.52929,0 h -7.79688 -4.884764 c 7.56e-4,0.0102 -0.02105,0 -0.03125,0 h -0.08789 -0.0039 c -0.02015,0.006 -0.256509,0 -0.285157,0 h -0.421874 c -1.456026,0 -1.456026,-1.47071 0,-1.47071 h 0.421874 c 0.02225,0 0.173826,-0.005 0.248047,-0.004 0.02073,2.7e-4 0.03271,0.003 0.03711,0.004 8.52e-4,2.4e-4 0.0039,-2.7e-4 0.0039,0 h 0.08789 c 0.0102,0 0.03187,-0.0102 0.03125,0 h 1.80664 c -0.791922,-0.10026 -1.583487,-0.20411 -2.375,-0.30664 -1.279294,-0.1986 -2.559971,-0.38269 -3.841797,-0.5625 v 35.25586 H 148.48828 V 11.630859 Z m 10.955081,74.423829 c 0.34558,0.01717 0.69567,0.356463 0.74609,1.037109 0.1313,1.772693 0.14077,2.005836 0.29297,3.705078 0.0217,0.241769 0.0281,0.485932 0.0723,0.724609 0.22586,1.221597 0.25914,0.972045 0.52734,2.041016 0.14765,0.588525 0.27618,1.180593 0.41406,1.771484 0.1929,0.899842 0.26186,1.309515 0.49219,2.13086 0.009,0.03043 0.0434,0.08639 0.0586,0.117187 0.0275,-0.005 0.055,-0.0086 0.082,-0.01172 0.0525,0.135289 0.0906,0.277556 0.11719,0.421876 0.0783,0.02103 0.1412,0.03862 0.24219,0.06445 0.1019,0.02589 0.21644,0.01353 0.31055,0.06055 0.97299,0.486218 1.77725,1.147648 2.62109,1.818359 0.96422,0.807614 2.02145,1.498664 3.09375,2.152344 0.21278,0.12499 0.41738,0.26573 0.63867,0.375 0.18152,0.0896 0.37414,0.15533 0.56641,0.21875 0.0584,0.0193 0.11867,0.0262 0.17969,0.0352 0.0162,6.3e-4 0.0327,0.002 0.0508,0.006 0.003,5.6e-4 0.005,9e-4 0.008,0.002 0.0243,2.7e-4 0.0592,-0.005 0.0547,0.0137 -3.4e-4,0.001 -0.002,0.003 -0.002,0.004 0.0869,0.0387 0.12207,0.1136 0.12305,0.21289 0.0143,-0.0507 0.0289,-0.0995 0.0469,-0.14063 0.0312,0.0121 0.0669,0.0171 0.0937,0.0371 0.1031,0.0763 0.214,0.14612 0.30664,0.23438 l 0.002,0.002 c 0.0248,0.0237 0.0485,0.0496 0.0703,0.0762 0.0833,0.10175 0.28834,0.41266 0.16992,0.35547 -0.76206,-0.36802 -0.44505,-0.42745 -0.27734,-0.43359 -0.0722,-0.004 -0.21034,-0.0151 -0.41992,-0.0352 -0.0108,0.0683 -0.0331,0.14508 -0.0605,0.22461 -0.0161,0.0916 -0.0326,0.18412 -0.0488,0.27539 0.52244,0.41273 1.25055,0.91182 0.42578,0.875 -0.20438,-0.009 -0.42963,0.0648 -0.61328,-0.0254 -0.0993,-0.0487 -0.16607,-0.13866 -0.23047,-0.23242 -0.0178,-0.009 -0.0347,-0.0185 -0.0469,-0.0234 v -0.002 c -0.12865,-0.0285 -0.25873,-0.0519 -0.38281,-0.0957 -0.25898,-0.0914 -0.5156,-0.19456 -0.76172,-0.31641 -0.22873,-0.11327 -0.44011,-0.25934 -0.66016,-0.38867 -0.72102,-0.44153 -1.43569,-0.89869 -2.12304,-1.39258 0.0161,0.0479 0.0305,0.0802 0.0488,0.13867 -0.008,0.12499 -0.0159,0.25001 -0.0234,0.375 -0.0859,1.44771 -1.45163,-1.78183 -1.42774,-0.36914 0.011,0.0136 0.0226,0.0271 0.0332,0.041 0.0167,0.0219 -0.003,0.0146 -0.0332,-0.004 0.002,0.0794 0.006,0.15885 0.008,0.23828 -0.0552,-0.097 -0.15277,-0.17068 -0.1914,-0.27539 -0.0147,-0.0398 -0.0266,-0.0857 -0.0391,-0.13281 -0.0723,-0.06 -0.14412,-0.12003 -0.19922,-0.19532 -0.16131,-0.2203 -0.15644,-0.21861 -0.15039,-0.36132 -0.0238,-0.10613 -0.0335,-0.14922 -0.0293,-0.15039 0.0597,-0.0162 0.24061,0.03 0.18555,0.002 -0.105,-0.0537 -0.23626,-0.0335 -0.34375,-0.082 -0.43638,-0.19704 -0.40617,-0.18918 -0.60743,-0.42578 -0.49918,-0.54017 -1.12125,-0.929647 -1.63867,-1.451176 -0.0314,-0.0316 -0.0546,-0.07055 -0.0801,-0.107422 -0.17481,-0.06231 -0.36431,-0.133364 -0.67968,-0.248047 -1.15456,-0.419838 -0.97779,-1.469405 -0.0723,-1.488281 0.03,-6.26e-4 0.0622,1.91e-4 0.0937,0.002 -0.15396,-0.594187 -0.26597,-1.095711 -0.41406,-1.787109 -0.13179,-0.567368 -0.2528,-1.136208 -0.39453,-1.701172 -0.32532,-1.296847 -0.29328,-0.746255 -0.57618,-2.298828 -0.0447,-0.245927 -0.0519,-0.497099 -0.0742,-0.746094 -0.0518,-0.578525 -0.10256,-1.157308 -0.14844,-1.736328 -0.0524,-0.661606 -0.0975,-1.324465 -0.14649,-1.986328 -0.0571,-0.771405 0.32904,-1.163995 0.72071,-1.144531 z m 10.57226,17.496092 c -0.0156,-0.0123 -0.0298,-0.023 -0.0449,-0.0352 -0.0984,0.23341 -0.21267,0.47435 -0.25586,0.65821 0.17281,-0.0175 0.24379,-0.30295 0.30078,-0.62305 z m -0.0449,-0.0352 c 0.0347,-0.0823 0.067,-0.16277 0.0937,-0.24023 0.0138,-0.0784 0.0265,-0.15522 0.043,-0.22656 -0.047,-0.005 -0.0874,-0.008 -0.14258,-0.0137 -0.0258,-0.003 -0.0495,-0.004 -0.0723,-0.006 -0.0484,0.0916 -0.10819,0.18529 -0.16407,0.27929 0.0646,0.063 0.15017,0.13342 0.24219,0.20703 z M 105.75,97.142578 c -0.22193,0.02192 -0.60694,0.185095 -0.78711,0.34961 0.074,0.01669 0.15029,0.03725 0.23047,0.06641 0.25294,0.09198 0.37115,0.136709 0.51562,0.189453 0.18511,-0.05688 0.3732,-0.12683 0.55274,-0.162109 -0.18105,-0.140618 -0.28722,-0.465606 -0.51172,-0.44336 z m 2.39844,4.392582 c 0.002,0.0193 0.009,0.0902 0.0234,0.23242 0.008,0.009 0.0158,0.0167 0.0234,0.0254 -0.0325,-0.15925 -0.0498,-0.29309 -0.0469,-0.25781 z m 5.72461,1.51562 c -0.0524,0.0267 -0.0512,0.0731 -0.0137,0.13281 0.004,-0.0462 0.007,-0.0911 0.0137,-0.13281 z m -0.0312,0.47461 c -0.0938,0.17087 -0.16208,0.32856 -0.14649,0.44922 -0.0168,-0.0201 -0.034,-0.0389 -0.0527,-0.0566 -0.0567,-0.0538 0.0677,0.1442 0.125,0.19726 0.007,0.006 0.0134,0.0129 0.0215,0.0176 6.7e-4,-0.003 9.2e-4,-0.005 0.002,-0.008 -0.057,-0.0381 -0.0855,-0.0886 -0.0937,-0.14844 0.0355,0.0428 0.066,0.0897 0.0977,0.13672 0.0382,-0.15945 0.0415,-0.37449 0.0469,-0.58789 z m -0.0469,0.58789 c -9.5e-4,0.004 -0.003,0.008 -0.004,0.0117 0.007,0.005 0.0139,0.009 0.0215,0.0137 -0.006,-0.009 -0.0118,-0.0169 -0.0176,-0.0254 z" />
    </clipPath>
  </defs>
  <g
     inkscape:label="Camada 1"
     inkscape:groupmode="layer"
     id="layer1">
    <g
       id="g11216"
       transform="matrix(0,1,-1.0024365,0,54.105843,-21.38808)">
      <g
         id="g12811"
         transform="matrix(0.95906181,-0.28250849,0.28388683,0.95906181,3.7933546,11.184731)" />
    </g>
    <g
       id="g12950"
       transform="matrix(1.1033805,0,0,1.1449373,-1.7099499,-4.7527365)">
      <path
         id="path8407"
         style="fill:#a38e45;stroke-width:9.99999;stroke-linejoin:round"
         transform="matrix(0.07492916,0.25375177,-0.25437003,0.07511172,42.893861,-17.594726)"
         d="m 108.07227,108.47266 c 1e-5,0.0123 -0.002,0.0249 -0.002,0.0371 0.005,0 0.0107,1e-5 0.0156,0 0.0313,-3.4e-4 0.0651,-2.5e-4 0.0957,0 0.009,8e-5 0.0185,-2.2e-4 0.0273,0 -3.7e-4,-0.003 4.2e-4,-0.005 0,-0.008 -0.0311,-0.008 -0.062,-0.0173 -0.0937,-0.0234 -0.0143,-0.003 -0.0285,-0.004 -0.043,-0.006 z" />
      <path
         id="path8397"
         style="fill:#a38e45;stroke-width:9.99999;stroke-linejoin:round"
         transform="matrix(0.07492916,0.25375177,-0.25437003,0.07511172,42.893861,-17.594726)"
         d="m 107.68555,108.43164 c 10e-4,0.0221 0.003,0.0442 0.004,0.0664 l 0.0117,0.004 c 0.001,-0.0284 0.003,-0.0477 0.002,-0.0684 -0.005,-6.8e-4 -0.011,-9.1e-4 -0.0176,-0.002 z" />
      <path
         id="path8393"
         style="fill:#a38e45;stroke-width:9.99999;stroke-linejoin:round"
         transform="matrix(0.07492916,0.25375177,-0.25437003,0.07511172,42.893861,-17.594726)"
         d="m 105.92969,96.804688 c -0.004,0.009 -0.0109,0.01685 -0.0156,0.02539 0.003,-0.0091 0.0194,-0.03408 0.0156,-0.02539 z m 2.58789,8.025392 c -0.0196,4.2e-4 -0.0392,0.001 -0.0586,0.002 0,0 -0.002,0 -0.002,0 0,0 -0.002,0 -0.002,0 -0.005,-1e-5 -0.0105,-9e-5 -0.0156,0 9.6e-4,4.6e-4 0.005,0.003 0.006,0.004 9.9e-4,4.4e-4 0.005,0.002 0.006,0.002 0.001,4.3e-4 0.005,0.002 0.006,0.002 0.002,8.3e-4 0.008,0.003 0.01,0.004 10e-4,4e-4 0.005,0.002 0.006,0.002 0.002,7.9e-4 0.008,0.003 0.01,0.004 0.002,7.8e-4 0.008,0.003 0.01,0.004 0.002,7.9e-4 0.008,0.003 0.01,0.004 10e-4,4.1e-4 0.005,0.002 0.006,0.002 0.002,8.4e-4 0.008,0.003 0.01,0.004 9.9e-4,4.5e-4 0.005,0.001 0.006,0.002 9.6e-4,4.7e-4 0.005,0.003 0.006,0.004 0,0 0.002,0.002 0.002,0.002 9.1e-4,5e-4 0.005,0.001 0.006,0.002 3e-5,-0.0144 -2e-5,-0.0283 0,-0.043 -0.007,1.7e-4 -0.013,-1.4e-4 -0.0195,0 z" />
      <path
         style="fill:#a38e45;stroke-width:2.64583;stroke-linejoin:round"
         d="m 27.953937,26.957078 c -2.65e-4,5.29e-4 -1.03e-4,0.0016 5.29e-4,0.0041 0.0011,0.0057 0.0039,0.01093 0.0052,0.01654 h 0.0072 c -0.0048,-0.0079 -0.01191,-0.02177 -0.01291,-0.02066 z"
         id="path8391"
         transform="matrix(0.28319682,0.9590618,-0.96139857,0.28388683,42.893861,-17.594726)" />
      <path
         id="path8375"
         style="fill:#a38e45;stroke-width:9.99999;stroke-linejoin:round"
         transform="matrix(0.07492916,0.25375177,-0.25437003,0.07511172,42.893861,-17.594726)"
         d="m 107.53125,95.875 c -0.003,0.01689 -0.009,0.05322 -0.0117,0.07031 -2e-4,0.02731 1.8e-4,0.05473 0,0.08203 0.003,-3.53e-4 0.007,-0.0017 0.01,-0.002 1.9e-4,-0.05026 0.002,-0.100142 0.002,-0.150391 z m 0.36914,0.488281 c -3.5e-4,0.08206 -0.002,0.164022 -0.002,0.246094 0.014,-0.01205 0.0316,-0.01715 0.0508,-0.01758 0.007,-0.0025 0.0156,-0.0039 0.0234,-0.0059 8e-4,-0.07083 -1.5e-4,-0.07055 0,-0.119141 -0.024,-0.03425 -0.048,-0.06943 -0.0723,-0.103516 z m -1.9707,0.441407 c 0.004,-0.0087 -0.0126,0.01629 -0.0156,0.02539 0.005,-0.0085 0.0116,-0.01639 0.0156,-0.02539 z" />
      <path
         id="path8373"
         style="fill:#a38e45;stroke-width:9.99999;stroke-linejoin:round"
         transform="matrix(0.07492916,0.25375177,-0.25437003,0.07511172,42.893861,-17.594726)"
         d="m 106.32812,94.205078 c -2e-5,0.0087 1e-5,0.02048 0,0.0293 1e-5,9.8e-4 0,0.0049 0,0.0059 1e-5,9.78e-4 0,0.0049 0,0.0059 1e-5,9.73e-4 0,0.0029 0,0.0039 0,0 0.002,-0.002 0.002,-0.002 0,0 0,-0.002 0,-0.002 0,0 0,-0.002 0,-0.002 0,0 0,-0.002 0,-0.002 0,0 0.002,-0.002 0.002,-0.002 0,0 0,-0.002 0,-0.002 0,0 0,-0.002 0,-0.002 0,0 0.002,-0.002 0.002,-0.002 0,0 0,-0.002 0,-0.002 1.9e-4,-6.87e-4 -1.7e-4,-0.0052 0,-0.0059 0,0 0.002,-0.002 0.002,-0.002 0,0 0,-0.002 0,-0.002 0,0 0,-0.002 0,-0.002 0,0 0,-0.002 0,-0.002 0,0 0,-0.002 0,-0.002 0,0 -0.002,-0.002 -0.002,-0.002 0,0 0,-0.002 0,-0.002 0,0 -0.002,0 -0.002,0 0,0 0,-0.002 0,-0.002 0,0 -0.002,-0.002 -0.002,-0.002 0,0 0,-0.002 0,-0.002 0,0 -0.002,-0.002 -0.002,-0.002 z m -0.39843,2.59961 c -0.004,0.009 -0.0109,0.01685 -0.0156,0.02539 0.003,-0.0091 0.0194,-0.03408 0.0156,-0.02539 z" />
      <path
         style="fill:#a38e45;stroke-width:2.64583;stroke-linejoin:round"
         d="m 27.013941,24.311245 c -0.003,0.0033 -0.0059,0.0064 -0.0088,0.0098 -5e-6,0.0026 -5e-6,0.0051 0,0.0078 0.0013,6.35e-4 0.0037,0.0013 0.0052,0.0021 0.0016,-0.0064 0.0026,-0.0131 0.0036,-0.01964 z"
         id="path8369"
         transform="matrix(0.28319682,0.9590618,-0.96139857,0.28388683,42.893861,-17.594726)" />
      <path
         id="path8361"
         style="fill:#a38e45;stroke-width:9.99999;stroke-linejoin:round"
         transform="matrix(0.07492916,0.25375177,-0.25437003,0.07511172,42.893861,-17.594726)"
         d="m 108.50391,86.78125 c 0,0 0.002,0.002 0.002,0.002 0,0 0.002,0.002 0.002,0.002 0.003,0.0022 0.007,0.0036 0.01,0.0059 0,0 0.002,0 0.002,0 0.002,9.81e-4 0.004,9.47e-4 0.006,0.002 -4.7e-4,-0.0019 -10e-4,-0.0038 -0.002,-0.0059 z m -0.0742,0.275391 c -0.004,-8.68e-4 -0.006,-9.13e-4 -0.004,0.0039 0.002,0.0028 0.002,0.0052 0.004,0.0078 0.005,-0.0011 0.0105,-0.0027 0.0156,-0.0039 -0.007,-0.0041 -0.012,-0.0069 -0.0156,-0.0078 z m 0.0977,0.08008 c -0.005,0.0023 -0.01,0.0046 -0.0156,0.0059 9e-4,0.0022 2.1e-4,0.0059 0,0.01172 0.005,-0.005 0.01,-0.01 0.0156,-0.01758 z m -0.28711,1.53125 c -0.001,0.01911 -8.6e-4,0.0365 -0.002,0.05469 0.005,5.09e-4 0.0126,0.0011 0.0195,0.002 -0.007,-0.01853 -0.0126,-0.03776 -0.0176,-0.05664 z m 0.32422,1.322265 c -0.002,0.0022 -0.003,0.0033 -0.006,0.0059 0.003,0.01419 0.004,0.02894 0.006,0.04297 3e-5,-0.01652 -3e-5,-0.03234 0,-0.04883 z m 0,0.113282 c -0.0124,0.001 -0.0245,0.0031 -0.0351,0.0039 -0.01,7.34e-4 -0.0203,0.0013 -0.0293,0.002 -0.003,0.0059 -0.007,0.01175 -0.01,0.01758 0.0239,-3.15e-4 0.0485,-0.0013 0.0742,-0.002 2e-5,-0.0073 -10e-6,-0.01419 0,-0.02148 z" />
      <path
         style="fill:#a38e45;stroke-width:2.64583;stroke-linejoin:round"
         d="m 28.71513,28.780224 c 8e-6,-0.0037 -8e-6,-0.0082 0,-0.01188 -0.0026,0.0024 -0.0058,0.0052 -0.0093,0.0088 z"
         id="path8359"
         transform="matrix(0.28319682,0.9590618,-0.96139857,0.28388683,42.893861,-17.594726)" />
      <g
         id="g12916"
         transform="matrix(0.2968993,1.0570963,-1.0079159,0.31290551,42.206439,-26.878896)"
         style="fill:#c9b363;fill-opacity:1">
        <path
           id="path8357"
           style="fill:#c9b363;stroke-width:9.99999;stroke-linejoin:round;fill-opacity:1"
           transform="scale(0.26458333)"
           d="m 108.5293,108.77539 c -0.02,9.95344 -0.0392,19.19634 -0.0566,23.59766 -0.0472,11.93322 28.24023,8.73632 28.24023,8.73633 l 0.0371,-23.05274 z" />
        <path
           id="path8353"
           style="fill:#c9b363;stroke-width:9.99999;stroke-linejoin:round;fill-opacity:1"
           transform="scale(0.26458333)"
           d="m 108.60352,77.427734 c -0.006,0.0087 -0.0117,0.01693 -0.0176,0.02539 -0.005,3.209233 -0.0103,6.195985 -0.0156,9.34375 0.004,0.0032 0.01,0.006 0.0137,0.0098 l 28.15235,9.259765 c -2e-4,-0.02153 -0.001,-0.04315 0,-0.06445 1.6e-4,-0.0034 0.002,-0.0057 0.002,-0.0078 2e-4,-0.0021 -2.1e-4,-0.0048 0,-0.0059 -0.002,-0.0095 -0.003,-0.02441 -0.006,-0.04883 0.003,-0.01591 0.004,-0.0314 0.008,-0.04687 0.008,-0.03393 0.0246,-0.0676 0.0449,-0.09766 l 0.0156,-9.09375 z m -2.67383,19.376954 c -0.004,0.009 -0.0109,0.01685 -0.0156,0.02539 0.003,-0.0091 0.0194,-0.03408 0.0156,-0.02539 z" />
        <path
           id="path8349"
           style="fill:#c9b363;stroke-width:9.99999;stroke-linejoin:round;fill-opacity:1"
           transform="scale(0.26458333)"
           d="m 108.63477,44.546875 c -0.006,4.651079 -0.008,5.500621 -0.0156,10.900391 l 28.20898,9.279296 v -0.002 c -6.8e-4,-0.0013 6.3e-4,-0.0027 0,-0.0039 -0.007,-0.01257 -0.01,-0.01848 0.002,-0.04297 0.001,-0.0024 0.003,-0.005 0.006,-0.0078 l 0.0176,-10.8125 c -0.0114,-0.0097 -0.0185,-0.02125 -0.0215,-0.03516 z" />
        <path
           id="path6758"
           style="fill:#c9b363;stroke-width:9.99999;stroke-linejoin:round;fill-opacity:1"
           transform="scale(0.26458333)"
           d="m 108.68164,11.814453 c 0,0 -0.0134,8.855373 -0.0156,10.755859 h 0.002 l 28.2207,9.283204 0.0312,-20.039063 z m 28.11914,20.103516 c 0.001,7.12e-4 0.003,0.0013 0.004,0.002 -0.004,0.0016 -0.005,0.0019 -0.004,-0.002 z" />
      </g>
      <g
         id="g12796"
         transform="translate(-1.3229167,8.2020833)"
         style="fill:#c9b363;fill-opacity:1">
        <g
           id="g12791"
           style="fill:#c9b363;fill-opacity:1">
          <rect
             style="fill:#c9b363;stroke-width:2.58207;stroke-linejoin:round;fill-opacity:1"
             id="rect11443"
             width="34.395832"
             height="25.267708"
             x="16.576485"
             y="14.838654"
             rx="3.3072915"
             ry="2.7119792" />
        </g>
        <rect
           style="fill:#c9b363;stroke-width:2.71456;stroke-linejoin:round;fill-opacity:1"
           id="rect12708"
           width="34.395832"
           height="8.4005203"
           x="16.576485"
           y="14.838654" />
      </g>
    </g>
  </g>
</svg>
